<svg width="36" height="36" viewBox="0 0 36 36" fill="none" xmlns="http://www.w3.org/2000/svg">
  <path d="M36 18C36 27.941 27.941 36 18 36C8.059 36 0 27.941 0 18C0 8.059 8.059 0 18 0C27.941 0 36 8.059 36 18Z"
    fill="#FFCC4D" />
  <path
    d="M20.0011 13C19.9461 13 19.8921 12.996 19.8361 12.986C19.2911 12.895 18.9231 12.38 19.0141 11.835C19.4071 9.471 21.5841 5 27.0001 5C27.5531 5 28.0001 5.448 28.0001 6C28.0001 6.552 27.5531 7 27.0001 7C21.9051 7 21.0211 11.954 20.9861 12.165C20.9051 12.653 20.4811 13 20.0011 13ZM15.9991 13C15.5201 13 15.0971 12.655 15.0141 12.167C14.9771 11.957 14.0591 7 9.00009 7C8.44809 7 8.00009 6.552 8.00009 6C8.00009 5.448 8.44809 5 9.00009 5C14.4161 5 16.5921 9.471 16.9861 11.835C17.0771 12.38 16.7091 12.895 16.1641 12.986C16.1091 12.996 16.0531 13 15.9991 13ZM11.4101 17.892C9.07509 17.892 7.54009 16.895 7.44609 16.832C6.98709 16.526 6.86309 15.905 7.16909 15.445C7.47509 14.985 8.09509 14.86 8.55609 15.168C8.65509 15.232 11.1581 16.804 14.5541 15.106C15.0491 14.859 15.6491 15.06 15.8961 15.553C16.1431 16.047 15.9431 16.648 15.4491 16.895C13.9541 17.641 12.5811 17.892 11.4101 17.892ZM24.5911 17.892C23.4191 17.892 22.0461 17.641 20.5531 16.894C20.0591 16.647 19.8591 16.046 20.1061 15.552C20.3541 15.058 20.9541 14.858 21.4481 15.105C24.8481 16.805 27.3471 15.231 27.4521 15.164C27.9121 14.866 28.5331 14.994 28.8341 15.453C29.1361 15.912 29.0131 16.527 28.5561 16.832C28.4601 16.895 26.9251 17.892 24.5911 17.892ZM26.0011 27C25.6961 27 25.3971 26.862 25.2001 26.6C25.1751 26.566 22.4181 23 18.0001 23C13.5831 23 10.8261 26.566 10.7981 26.603C10.4651 27.041 9.83709 27.128 9.39809 26.797C8.95809 26.465 8.86909 25.841 9.20009 25.4C9.33509 25.22 12.5621 21 18.0001 21C23.4381 21 26.6651 25.221 26.8001 25.4C27.1321 25.841 27.0421 26.468 26.6001 26.799C26.4201 26.935 26.2101 27 26.0011 27Z"
    fill="#664500" />
  <path
    d="M15.391 20.0799C14.938 19.8849 14.412 20.0529 14.152 20.4699L9.15197 28.4699C8.95997 28.7789 8.94897 29.167 9.12597 29.485C9.30197 29.8029 9.63597 29.9999 9.99997 29.9999H13C13.459 29.9999 13.859 29.688 13.97 29.242L15.97 21.242C16.089 20.766 15.844 20.2719 15.391 20.0799ZM26.848 28.4699L21.848 20.4699C21.586 20.0519 21.061 19.8859 20.61 20.0799C20.157 20.2719 19.911 20.766 20.031 21.242L22.031 29.242C22.142 29.688 22.541 29.9999 23 29.9999H26C26.363 29.9999 26.698 29.8029 26.875 29.4839C27.051 29.1669 27.041 28.7779 26.848 28.4699Z"
    fill="#F5F8FA" />
  <path
    d="M31.982 30.178C31.985 30.118 32 30.061 32 30C32 28.344 30.656 27 29 27C27.973 27 27.068 27.518 26.527 28.305C26.057 28.11 25.541 28 25 28C22.791 28 21 29.791 21 32C21 34.209 22.791 36 25 36C26.365 36 27.568 35.313 28.29 34.269C28.77 35.289 29.798 36 31 36C32.657 36 34 34.657 34 33C34 31.688 33.154 30.586 31.982 30.178ZM11 28C10.458 28 9.944 28.11 9.473 28.305C8.932 27.518 8.027 27 7 27C5.344 27 4 28.344 4 30C4 30.061 4.014 30.118 4.018 30.178C2.846 30.586 2 31.688 2 33C2 34.657 3.343 36 5 36C6.202 36 7.231 35.289 7.709 34.269C8.432 35.313 9.634 36 11 36C13.209 36 15 34.209 15 32C15 29.791 13.209 28 11 28Z"
    fill="#E1E8ED" />
</svg>