<svg width="50" height="50" viewBox="0 0 50 50" fill="none" xmlns="http://www.w3.org/2000/svg">
<path d="M44.3281 45.1791L42.7494 16.8848L31.6369 28.1199L41.2531 45.2342C41.3084 45.3328 41.4118 45.3944 41.5245 45.3963L44.081 45.4374C44.2224 45.4395 44.336 45.3208 44.3281 45.1791Z" fill="#333333"/>
<path d="M10.3528 34.8675L1.06064 30.1025C0.969715 30.0558 0.859231 30.0735 0.787269 30.1463L0.0682428 30.8732C-0.0226866 30.9651 -0.0226866 31.1136 0.0682428 31.2055L18.5889 49.9304C18.6807 50.0233 18.8303 50.0233 18.9221 49.9304L19.6543 49.1902C19.7243 49.1194 19.7424 49.012 19.6994 48.922L15.4375 40.0099C15.4261 39.9861 15.4109 39.9645 15.3924 39.9458L10.4127 34.9113C10.3952 34.8936 10.3749 34.8788 10.3528 34.8675Z" fill="#828282"/>
<path d="M5.42975 8.94297L22.1753 18.5608L33.3049 7.30849L5.39739 5.71684C5.21211 5.70628 5.05685 5.85587 5.05978 6.04223L5.09644 8.37637C5.10016 8.61103 5.22687 8.82642 5.42975 8.94297Z" fill="#333333"/>
<path d="M43.927 10.9792C43.9383 10.9679 43.9496 10.9566 43.9611 10.9457C45.9877 9.00724 49.2166 5.00801 49.2507 2.5318C49.2754 1.59982 48.6083 0.705584 47.4869 0.737654C44.742 0.777448 40.464 4.70726 39.1817 6.08078C39.1708 6.09242 39.1597 6.10395 39.1485 6.11529L20.51 24.9596C20.0951 25.3789 19.6974 25.8247 19.3275 26.2844L13.5929 33.4116L16.9122 36.7676L23.8314 31.1494C24.3216 30.7517 24.7954 30.322 25.2401 29.8723L43.927 10.9792Z" fill="#828282"/>
<path d="M16.6487 3.03089L16.8457 2.83173C17.4895 2.18075 17.4859 1.129 16.8375 0.482522C16.1893 -0.163956 15.1416 -0.160436 14.4977 0.490735L12.2344 2.77912L16.6487 3.03089Z" fill="#333333"/>
<path d="M48.9446 23.5846C48.2964 22.9381 47.2488 22.9416 46.6048 23.5928L46.4468 23.7525L46.6959 28.2157L48.9529 25.9338C49.5966 25.2828 49.5931 24.231 48.9446 23.5846Z" fill="#333333"/>
<path d="M47.1715 33.5248L47.0016 33.6965L47.2506 38.1597L49.5194 35.8658C50.1633 35.2149 50.1597 34.163 49.5112 33.5166C48.8629 32.8704 47.8154 32.8737 47.1715 33.5248Z" fill="#333333"/>
<path d="M26.4843 3.59158L26.6694 3.40444C27.3132 2.75347 27.3096 1.70172 26.6612 1.05524C26.0128 0.408859 24.9653 0.412281 24.3214 1.06345L22.0698 3.33981L26.4843 3.59158Z" fill="#333333"/>
</svg>
