<svg width="70" height="70" viewBox="0 0 70 70" fill="none" xmlns="http://www.w3.org/2000/svg">
<path d="M16.4062 32.2656C15.0001 32.2656 13.6256 32.6826 12.4565 33.4638C11.2873 34.245 10.3761 35.3553 9.83802 36.6544C9.29993 37.9534 9.15914 39.3829 9.43346 40.762C9.70778 42.1411 10.3849 43.4078 11.3791 44.4021C12.3734 45.3964 13.6402 46.0735 15.0193 46.3478C16.3983 46.6221 17.8278 46.4813 19.1269 45.9432C20.4259 45.4051 21.5363 44.4939 22.3175 43.3248C23.0986 42.1556 23.5156 40.7811 23.5156 39.375C23.5135 37.4901 22.7638 35.6831 21.431 34.3503C20.0982 33.0175 18.2911 32.2678 16.4062 32.2656ZM16.4062 42.6563C15.7573 42.6563 15.1229 42.4638 14.5833 42.1033C14.0437 41.7427 13.6231 41.2303 13.3747 40.6307C13.1264 40.0311 13.0614 39.3714 13.188 38.7349C13.3146 38.0984 13.6271 37.5137 14.086 37.0548C14.5449 36.5959 15.1296 36.2834 15.7661 36.1568C16.4026 36.0302 17.0623 36.0952 17.6619 36.3435C18.2615 36.5919 18.7739 37.0124 19.1345 37.552C19.495 38.0916 19.6875 38.726 19.6875 39.375C19.6875 40.2452 19.3418 41.0798 18.7264 41.6952C18.1111 42.3106 17.2765 42.6563 16.4062 42.6563Z" fill="#828282"/>
<path d="M55.7812 32.2656C54.3751 32.2656 53.0006 32.6826 51.8315 33.4638C50.6623 34.245 49.7511 35.3553 49.213 36.6544C48.6749 37.9534 48.5341 39.3829 48.8085 40.762C49.0828 42.1411 49.7599 43.4078 50.7541 44.4021C51.7484 45.3964 53.0152 46.0735 54.3943 46.3478C55.7733 46.6221 57.2028 46.4813 58.5019 45.9432C59.8009 45.4051 60.9113 44.4939 61.6925 43.3248C62.4736 42.1556 62.8906 40.7811 62.8906 39.375C62.8885 37.4901 62.1388 35.6831 60.806 34.3503C59.4732 33.0175 57.6661 32.2678 55.7812 32.2656ZM55.7812 42.6563C55.1323 42.6563 54.4979 42.4638 53.9583 42.1033C53.4187 41.7427 52.9981 41.2303 52.7497 40.6307C52.5014 40.0311 52.4364 39.3714 52.563 38.7349C52.6896 38.0984 53.0021 37.5137 53.461 37.0548C53.9199 36.5959 54.5046 36.2834 55.1411 36.1568C55.7776 36.0302 56.4373 36.0952 57.0369 36.3435C57.6365 36.5919 58.1489 37.0124 58.5095 37.552C58.87 38.0916 59.0625 38.726 59.0625 39.375C59.0625 40.2452 58.7168 41.0798 58.1014 41.6952C57.4861 42.3106 56.6515 42.6563 55.7812 42.6563Z" fill="#828282"/>
<path d="M65.2695 26.3922L52.5 24.0625L41.6288 15.0425C40.5514 14.1575 39.2006 13.6731 37.8063 13.6719H21.7902C20.8877 13.6698 19.9963 13.8717 19.1829 14.2627C18.3694 14.6537 17.6549 15.2236 17.0927 15.9297L10.1489 24.0625H5.46875C4.16383 24.064 2.91277 24.583 1.99006 25.5057C1.06734 26.4284 0.548322 27.6795 0.546875 28.9844V35C0.548648 36.5949 1.183 38.124 2.31077 39.2517C3.43853 40.3795 4.9676 41.0139 6.5625 41.0156H7.81279C7.57011 39.75 7.61 38.4464 7.9296 37.1979C8.24921 35.9495 8.84063 34.787 9.66162 33.7936C10.4826 32.8003 11.5129 32.0005 12.6788 31.4516C13.8447 30.9026 15.1175 30.6179 16.4062 30.6179C17.695 30.6179 18.9678 30.9026 20.1337 31.4516C21.2996 32.0005 22.3299 32.8003 23.1509 33.7936C23.9719 34.787 24.5633 35.9495 24.8829 37.1979C25.2025 38.4464 25.2424 39.75 24.9997 41.0156H47.1878C46.9451 39.75 46.985 38.4464 47.3046 37.1979C47.6242 35.9495 48.2156 34.787 49.0366 33.7936C49.8576 32.8003 50.8879 32.0005 52.0538 31.4516C53.2197 30.9026 54.4925 30.6179 55.7812 30.6179C57.07 30.6179 58.3428 30.9026 59.5087 31.4516C60.6746 32.0005 61.7049 32.8003 62.5259 33.7936C63.3469 34.787 63.9383 35.9495 64.2579 37.1979C64.5775 38.4464 64.6174 39.75 64.3747 41.0156H64.5312C65.8362 41.0142 67.0872 40.4952 68.0099 39.5725C68.9327 38.6497 69.4517 37.3987 69.4531 36.0938V31.2583C69.459 30.0793 69.039 28.9377 68.2704 28.0437C67.5017 27.1496 66.4361 26.5632 65.2695 26.3922ZM24.6094 22.4219C24.6094 22.857 24.4365 23.2743 24.1288 23.582C23.8212 23.8897 23.4039 24.0625 22.9688 24.0625H15.7562C15.5993 24.0626 15.4457 24.0177 15.3136 23.9332C15.1815 23.8487 15.0764 23.728 15.0107 23.5856C14.945 23.4431 14.9216 23.2848 14.9432 23.1295C14.9647 22.9741 15.0304 22.8282 15.1323 22.709L19.906 17.1172C20.0601 16.937 20.2514 16.7924 20.4668 16.6932C20.6822 16.5941 20.9166 16.5429 21.1537 16.543H22.9688C23.4039 16.543 23.8212 16.7158 24.1288 17.0235C24.4365 17.3312 24.6094 17.7485 24.6094 18.1836V22.4219ZM32.8125 30.0781H30.625C30.1899 30.0781 29.7726 29.9053 29.4649 29.5976C29.1572 29.2899 28.9844 28.8726 28.9844 28.4375C28.9844 28.0024 29.1572 27.5851 29.4649 27.2774C29.7726 26.9697 30.1899 26.7969 30.625 26.7969H32.8125C33.2476 26.7969 33.6649 26.9697 33.9726 27.2774C34.2803 27.5851 34.4531 28.0024 34.4531 28.4375C34.4531 28.8726 34.2803 29.2899 33.9726 29.5976C33.6649 29.9053 33.2476 30.0781 32.8125 30.0781ZM45.7296 24.1027L30.0743 24.0663C29.6398 24.0653 29.2235 23.892 28.9167 23.5845C28.6098 23.2769 28.4375 22.8602 28.4375 22.4257V18.1836C28.4375 17.7485 28.6104 17.3312 28.918 17.0235C29.2257 16.7158 29.643 16.543 30.0781 16.543H37.946C38.3148 16.543 38.6728 16.6673 38.9622 16.8957L46.2395 22.6379C46.3737 22.7435 46.4715 22.8884 46.5194 23.0523C46.5673 23.2161 46.5629 23.3909 46.5067 23.5521C46.4506 23.7134 46.3456 23.8531 46.2062 23.9518C46.0669 24.0505 45.9003 24.1032 45.7296 24.1027Z" fill="#333333"/>
</svg>
