<svg width="54" height="54" viewBox="0 0 54 54" fill="none" xmlns="http://www.w3.org/2000/svg">
<g clip-path="url(#clip0)">
<path d="M27.123 0C27.1085 0 27.0796 0 27.0362 0C12.3943 0 0.487 11.9073 0.487 26.5492C0.487 32.5245 2.52702 38.3263 6.25982 42.9995L2.3968 51.9843C2.0785 52.7222 2.42574 53.5758 3.14915 53.8796C3.40958 53.9954 3.69894 54.0243 3.97384 53.9809L18.1382 51.4924C20.974 52.5196 23.9544 53.0405 26.9638 53.026C41.6057 53.026 53.513 41.1187 53.513 26.4768C53.5419 11.8784 41.7214 0.0144682 27.123 0ZM18.0369 21.2104H25.8498C26.6455 21.2104 27.2966 21.8615 27.2966 22.6572C27.2966 23.453 26.6455 24.104 25.8498 24.104H18.0369C17.2412 24.104 16.5901 23.453 16.5901 22.6572C16.5901 21.8615 17.2412 21.2104 18.0369 21.2104ZM35.9775 31.3381H18.0369C17.2412 31.3381 16.5901 30.6871 16.5901 29.8913C16.5901 29.0956 17.2412 28.4445 18.0369 28.4445H35.9775C36.7733 28.4445 37.4243 29.0956 37.4243 29.8913C37.4243 30.6871 36.7733 31.3381 35.9775 31.3381Z" fill="#232122"/>
</g>
<defs>
<clipPath id="clip0">
<rect width="54" height="54" fill="white"/>
</clipPath>
</defs>
</svg>
