<svg width="50" height="50" viewBox="0 0 50 50" fill="none" xmlns="http://www.w3.org/2000/svg">
<g clip-path="url(#clip0)">
<path d="M42.6172 16.0923H32.2931V34.8043H49.2084V26.382L47.2356 19.5639C46.6409 17.5078 44.7577 16.0923 42.6172 16.0923Z" fill="#828282"/>
<path d="M46.7388 26.2959L44.9806 20.2183C44.6776 19.1736 43.7058 18.4424 42.6173 18.4424H34.6429V26.2959H46.7388Z" fill="#84DBFF"/>
<path d="M46.7409 26.2925H34.6388V18.439L46.7409 26.2925Z" fill="#E0E0E0"/>
<path d="M46.7388 26.2959L44.9806 20.2183C44.6776 19.1736 43.7058 18.4424 42.6173 18.4424H34.6429L46.7388 26.2959Z" fill="#F2F2F2"/>
<path d="M3.12474 6.69824H29.1684C30.8932 6.69824 32.2931 8.09705 32.2931 9.82298V34.8032H0V9.82298C0 8.09715 1.39881 6.69824 3.12474 6.69824Z" fill="#8D090C"/>
<path d="M21.165 6.70361V14.9601L19.9567 13.7519L18.6902 15.0185L17.4247 13.7519L16.1591 15.0185L14.8915 13.7519L13.6094 15.0185L12.3448 13.7519L11.1221 14.9748V6.70361H21.165Z" fill="#F2F2F2"/>
<path d="M50.0008 34.8021V38.3331H0.00500488V34.8021H5.22332C6.44196 32.6148 8.78552 31.1357 11.4728 31.1357C14.1496 31.1357 16.4932 32.6148 17.7223 34.8021H34.5126C35.7312 32.6148 38.0633 31.1357 40.7506 31.1357C43.4379 31.1357 45.771 32.6148 47.0001 34.8021H50.0008Z" fill="#828282"/>
<path d="M45.74 38.3115C45.74 41.0675 43.5058 43.3017 40.7498 43.3017C37.9937 43.3017 35.7616 41.0675 35.7616 38.3115C35.7616 35.5555 37.9947 33.3213 40.7498 33.3213C43.5068 33.3213 45.74 35.5555 45.74 38.3115Z" fill="#828282"/>
<path d="M42.7557 38.3112C42.7557 39.4184 41.8578 40.3152 40.7517 40.3152C39.6445 40.3152 38.7456 39.4184 38.7456 38.3112C38.7456 37.2039 39.6435 36.3071 40.7517 36.3071C41.8578 36.3062 42.7557 37.204 42.7557 38.3112Z" fill="white"/>
<path d="M16.458 38.3115C16.458 41.0675 14.2227 43.3017 11.4677 43.3017C8.71173 43.3017 6.47754 41.0675 6.47754 38.3115C6.47754 35.5555 8.71173 33.3213 11.4677 33.3213C14.2227 33.3213 16.458 35.5555 16.458 38.3115Z" fill="#828282"/>
<path d="M13.4718 38.3112C13.4718 39.4184 12.575 40.3152 11.4678 40.3152C10.3605 40.3152 9.46277 39.4184 9.46277 38.3112C9.46277 37.2039 10.3606 36.3071 11.4678 36.3071C12.5749 36.3071 13.4718 37.204 13.4718 38.3112Z" fill="white"/>
</g>
<defs>
<clipPath id="clip0">
<rect width="50" height="50" fill="white"/>
</clipPath>
</defs>
</svg>
