<svg width="60" height="60" viewBox="0 0 60 60" fill="none" xmlns="http://www.w3.org/2000/svg">
<path d="M59.9764 42.4275V32.3573C59.9764 30.8574 59.5486 29.3576 58.9051 28.072L52.494 17.1447C51.8511 15.8591 50.3514 15.0021 48.8517 15.0021H39.21C37.7103 15.0021 36.4244 16.2877 36.4244 17.7875V40.7135H34.2818V10.7169C34.2818 8.35999 32.3537 6.43164 29.9966 6.43164H0V44.9987H6.42784C7.49915 41.3562 10.7131 38.5708 14.7838 38.5708C18.855 38.5708 22.2829 41.3562 23.1402 44.9987H38.7814C39.8527 41.3562 43.0667 38.5708 47.1374 38.5708C50.5658 38.5708 53.3507 40.4992 54.6365 43.2846C55.2794 44.3559 56.3345 44.9987 57.4058 44.9987C58.9051 44.9987 60.191 43.7131 59.9764 42.4275ZM40.7097 30.0004V19.2873H49.2801L55.4934 30.0004H40.7097Z" fill="#333333"/>
<path d="M47.1375 40.7129C43.4952 40.7129 40.7097 43.4983 40.7097 47.1407C40.7097 50.7832 43.4952 53.5686 47.1375 53.5686C50.7798 53.5686 53.5653 50.7832 53.5653 47.1407C53.5653 43.4983 50.7798 40.7129 47.1375 40.7129ZM47.1375 50.1404C45.4233 50.1404 44.1381 48.8548 44.1381 47.1407C44.1381 45.4266 45.4234 44.1411 47.1375 44.1411C48.8517 44.1411 50.1369 45.4266 50.1369 47.1407C50.1369 48.8548 48.8517 50.1404 47.1375 50.1404Z" fill="#828282"/>
<path d="M14.9983 40.7129C11.356 40.7129 8.57046 43.4983 8.57046 47.1407C8.57046 50.7832 11.356 53.5686 14.9983 53.5686C18.6406 53.5686 21.4261 50.7832 21.4261 47.1407C21.4261 43.4983 18.6406 40.7129 14.9983 40.7129ZM14.9983 50.1404C13.2841 50.1404 11.9989 48.8548 11.9989 47.1407C11.9989 45.4266 13.2842 44.1411 14.9983 44.1411C16.7124 44.1411 17.9977 45.4266 17.9977 47.1407C17.9977 48.8548 16.7125 50.1404 14.9983 50.1404Z" fill="#828282"/>
<path d="M14.9983 48.212C15.59 48.212 16.0696 47.7323 16.0696 47.1406C16.0696 46.549 15.59 46.0693 14.9983 46.0693C14.4066 46.0693 13.927 46.549 13.927 47.1406C13.927 47.7323 14.4066 48.212 14.9983 48.212Z" fill="black"/>
<path d="M47.1375 48.212C47.7292 48.212 48.2088 47.7323 48.2088 47.1406C48.2088 46.549 47.7292 46.0693 47.1375 46.0693C46.5458 46.0693 46.0662 46.549 46.0662 47.1406C46.0662 47.7323 46.5458 48.212 47.1375 48.212Z" fill="black"/>
</svg>
