<svg width="26" height="2" viewBox="0 0 26 2" fill="none" xmlns="http://www.w3.org/2000/svg">
  <path opacity="0.2"
    d="M24 1C24 0.447715 24.4477 -1.85108e-08 25 -1.19249e-08C25.5523 -5.33895e-09 26 0.447715 26 1C26 1.55228 25.5523 2 25 2C24.4477 2 24 1.55228 24 1Z"
    fill="#333333" />
  <path opacity="0.4"
    d="M18 1C18 0.447715 18.4477 -1.85108e-08 19 -1.19249e-08C19.5523 -5.33895e-09 20 0.447715 20 1C20 1.55228 19.5523 2 19 2C18.4477 2 18 1.55228 18 1Z"
    fill="#333333" />
  <path opacity="0.8"
    d="M6 1C6 0.447715 6.44772 -1.85108e-08 7 -1.19249e-08C7.55228 -5.33895e-09 8 0.447715 8 1C8 1.55228 7.55228 2 7 2C6.44772 2 6 1.55228 6 1Z"
    fill="#333333" />
  <path opacity="0.6"
    d="M12 1C12 0.447715 12.4477 -1.85108e-08 13 -1.19249e-08C13.5523 -5.33895e-09 14 0.447715 14 1C14 1.55228 13.5523 2 13 2C12.4477 2 12 1.55228 12 1Z"
    fill="#333333" />
  <path
    d="M1.19249e-08 1C1.85108e-08 0.447715 0.447715 -1.85108e-08 1 -1.19249e-08C1.55228 -5.33895e-09 2 0.447715 2 1C2 1.55228 1.55228 2 1 2C0.447715 2 5.33895e-09 1.55228 1.19249e-08 1Z"
    fill="#333333" />
</svg>