<svg width="118" height="39" viewBox="0 0 118 39" fill="none" xmlns="http://www.w3.org/2000/svg">
  <path
    d="M113.63 0H4.37037C1.95668 0 0 2.18261 0 4.875V34.125C0 36.8174 1.95668 39 4.37037 39H113.63C116.043 39 118 36.8174 118 34.125V4.875C118 2.18261 116.043 0 113.63 0Z"
    fill="black" />
  <path
    d="M113.63 0.78C114.603 0.78 115.537 1.21144 116.226 1.9794C116.914 2.74736 117.301 3.78894 117.301 4.875V34.125C117.301 35.2111 116.914 36.2526 116.226 37.0206C115.537 37.7886 114.603 38.22 113.63 38.22H4.37037C3.39673 38.22 2.46297 37.7886 1.7745 37.0206C1.08604 36.2526 0.699259 35.2111 0.699259 34.125V4.875C0.699259 3.78894 1.08604 2.74736 1.7745 1.9794C2.46297 1.21144 3.39673 0.78 4.37037 0.78H113.63ZM113.63 0H4.37037C3.21128 0 2.09966 0.513615 1.28005 1.42785C0.460448 2.34209 0 3.58207 0 4.875V34.125C0 35.4179 0.460448 36.6579 1.28005 37.5721C2.09966 38.4864 3.21128 39 4.37037 39H113.63C114.789 39 115.9 38.4864 116.72 37.5721C117.54 36.6579 118 35.4179 118 34.125V4.875C118 3.58207 117.54 2.34209 116.72 1.42785C115.9 0.513615 114.789 0 113.63 0Z"
    fill="#A6A6A6" />
  <path
    d="M59.5596 21.206C58.8256 21.2098 58.1091 21.4561 57.5005 21.9138C56.8919 22.3714 56.4185 23.0199 56.14 23.7774C55.8615 24.5349 55.7904 25.3675 55.9358 26.17C56.0811 26.9725 56.4362 27.709 56.9564 28.2866C57.4767 28.8642 58.1386 29.2569 58.8587 29.4152C59.5788 29.5735 60.3249 29.4903 61.0027 29.1761C61.6804 28.8619 62.2596 28.3308 62.667 27.6498C63.0744 26.9688 63.2919 26.1684 63.2919 25.3497C63.299 24.8017 63.2072 24.2577 63.0219 23.7501C62.8367 23.2424 62.5617 22.7816 62.2135 22.395C61.8652 22.0083 61.4508 21.7038 60.9949 21.4995C60.5389 21.2953 60.0508 21.1954 59.5596 21.206ZM59.5596 27.8652C59.1082 27.9004 58.6577 27.7833 58.2668 27.5292C57.8758 27.2751 57.5625 26.8956 57.3674 26.4402C57.1723 25.9847 57.1046 25.4744 57.1731 24.9754C57.2415 24.4765 57.4429 24.0121 57.7511 23.6425C58.0593 23.273 58.46 23.0154 58.9012 22.9032C59.3424 22.7911 59.8036 22.8296 60.2249 23.0137C60.6462 23.1978 61.0081 23.5191 61.2636 23.9357C61.519 24.3523 61.6562 24.845 61.6573 25.3497C61.6714 25.6695 61.6279 25.9892 61.5295 26.29C61.431 26.5908 61.2796 26.8665 61.0841 27.101C60.8886 27.3354 60.6529 27.5238 60.3911 27.6551C60.1293 27.7863 59.8465 27.8578 59.5596 27.8652ZM51.4219 21.206C50.6876 21.2079 49.9702 21.4525 49.3605 21.909C48.7507 22.3655 48.276 23.0134 47.9961 23.7707C47.7163 24.528 47.644 25.3609 47.7883 26.1641C47.9326 26.9672 48.2871 27.7047 48.807 28.2832C49.3269 28.8617 49.9888 29.2554 50.7092 29.4145C51.4295 29.5736 52.176 29.491 52.8543 29.1771C53.5326 28.8632 54.1122 28.3321 54.52 27.6508C54.9278 26.9696 55.1455 26.1688 55.1455 25.3497C55.1526 24.8017 55.0608 24.2577 54.8755 23.7501C54.6903 23.2424 54.4153 22.7816 54.0671 22.395C53.7189 22.0083 53.3044 21.7038 52.8485 21.4995C52.3926 21.2953 51.9044 21.1954 51.4132 21.206H51.4219ZM51.4219 27.8652C50.9703 27.9024 50.5191 27.7871 50.1271 27.5342C49.7351 27.2814 49.4204 26.9028 49.2239 26.4476C49.0275 25.9925 48.9585 25.482 49.0258 24.9824C49.0932 24.4829 49.2938 24.0176 49.6015 23.6471C49.9092 23.2765 50.3099 23.0179 50.7512 22.9048C51.1926 22.7918 51.6542 22.8296 52.076 23.0133C52.4979 23.197 52.8603 23.5181 53.1163 23.9348C53.3722 24.3516 53.5097 24.8446 53.511 25.3497C53.525 25.6695 53.4816 25.9892 53.3831 26.29C53.2847 26.5908 53.1332 26.8665 52.9377 27.101C52.7422 27.3354 52.5066 27.5238 52.2447 27.6551C51.9829 27.7863 51.7002 27.8578 51.4132 27.8652H51.4219ZM41.7284 22.4832V24.2382H45.5044C45.4452 25.0648 45.1372 25.8448 44.6304 26.4515C44.2526 26.8807 43.7985 27.2169 43.2972 27.4386C42.7959 27.6603 42.2585 27.7624 41.7197 27.7385C40.607 27.7385 39.5398 27.2454 38.753 26.3677C37.9662 25.49 37.5242 24.2997 37.5242 23.0585C37.5242 21.8172 37.9662 20.6269 38.753 19.7492C39.5398 18.8715 40.607 18.3785 41.7197 18.3785C42.7842 18.3591 43.812 18.8114 44.5779 19.6362L45.688 18.398C45.171 17.814 44.5541 17.3517 43.874 17.0385C43.1938 16.7253 42.4642 16.5676 41.7284 16.5747C40.9514 16.541 40.1762 16.6826 39.4494 16.991C38.7226 17.2994 38.0591 17.7684 37.4986 18.3697C36.9381 18.971 36.4923 19.6924 36.1877 20.4905C35.8831 21.2886 35.7261 22.1471 35.7261 23.0146C35.7261 23.882 35.8831 24.7405 36.1877 25.5387C36.4923 26.3368 36.9381 27.0581 37.4986 27.6595C38.0591 28.2608 38.7226 28.7297 39.4494 29.0382C40.1762 29.3466 40.9514 29.4882 41.7284 29.4545C42.4766 29.4922 43.2233 29.3507 43.9184 29.0396C44.6134 28.7284 45.2407 28.2549 45.7579 27.6507C46.6737 26.5284 47.1626 25.0531 47.1215 23.5362C47.1243 23.1667 47.095 22.7977 47.0341 22.4344L41.7284 22.4832ZM81.3328 23.8482C81.1048 23.1001 80.6785 22.4469 80.1104 21.9751C79.5422 21.5032 78.859 21.235 78.1511 21.206C77.673 21.2049 77.1998 21.3133 76.7607 21.5243C76.3216 21.7354 75.926 22.0447 75.5983 22.433C75.2706 22.8214 75.0178 23.2806 74.8555 23.7823C74.6932 24.2839 74.6249 24.8174 74.6548 25.3497C74.6442 25.8946 74.7321 26.4364 74.9134 26.9426C75.0947 27.4487 75.3656 27.909 75.7099 28.2957C76.0542 28.6825 76.4648 28.9879 76.9173 29.1937C77.3698 29.3995 77.8548 29.5014 78.3434 29.4935C78.9548 29.4971 79.5575 29.3316 80.0975 29.0117C80.6375 28.6918 81.098 28.2275 81.4376 27.6605L80.1702 26.6855C79.9811 27.0372 79.7133 27.3282 79.393 27.5298C79.0728 27.7315 78.7111 27.837 78.3434 27.836C77.9648 27.852 77.5906 27.7407 77.2695 27.5164C76.9483 27.2921 76.6952 26.9652 76.5428 26.5782L81.5163 24.287L81.3328 23.8482ZM76.2631 25.2327C76.2454 24.9311 76.2818 24.6286 76.3702 24.343C76.4586 24.0573 76.5972 23.7941 76.7779 23.569C76.9586 23.3438 77.1778 23.1611 77.4226 23.0316C77.6674 22.902 77.9329 22.8283 78.2036 22.8147C78.4855 22.794 78.7667 22.8661 79.0122 23.0221C79.2577 23.1781 79.4568 23.4111 79.5846 23.6922L76.2631 25.2327ZM72.2249 29.2497H73.8594V17.0622H72.2249V29.2497ZM69.5502 22.1322H69.489C69.2427 21.825 68.9409 21.5793 68.6035 21.4113C68.2661 21.2432 67.9006 21.1567 67.5311 21.1572C66.5759 21.2089 65.6752 21.6685 65.0155 22.4409C64.3559 23.2132 63.9879 24.2391 63.9879 25.3058C63.9879 26.3726 64.3559 27.3984 65.0155 28.1708C65.6752 28.9431 66.5759 29.4028 67.5311 29.4545C67.9015 29.4614 68.2688 29.3777 68.6071 29.2093C68.9453 29.0408 69.2464 28.7917 69.489 28.4795H69.5415V29.0742C69.5415 30.6635 68.781 31.5117 67.5573 31.5117C67.1498 31.5011 66.7543 31.3554 66.4212 31.0932C66.0881 30.831 65.8324 30.4642 65.6868 30.0395L64.2621 30.7025C64.5303 31.4302 64.9872 32.0519 65.5744 32.4879C66.1615 32.924 66.852 33.1544 67.5573 33.1497C69.4716 33.1497 71.0536 31.892 71.0536 28.8305V21.4497H69.5502V22.1322ZM67.6797 27.8652C67.1159 27.8098 66.5911 27.5208 66.2089 27.0551C65.8266 26.5895 65.6146 25.9811 65.6146 25.3497C65.6146 24.7183 65.8266 24.1099 66.2089 23.6443C66.5911 23.1786 67.1159 22.8896 67.6797 22.8342C67.9593 22.8502 68.2331 22.9285 68.4851 23.0643C68.7372 23.2002 68.9622 23.391 69.1471 23.6254C69.3321 23.8598 69.473 24.1332 69.5618 24.4293C69.6505 24.7254 69.6852 25.0384 69.6639 25.3497C69.6877 25.6624 69.6544 25.9772 69.5661 26.2751C69.4778 26.5731 69.3362 26.8479 69.1499 27.083C68.9636 27.3182 68.7365 27.5087 68.4823 27.6432C68.2281 27.7776 67.9521 27.8531 67.671 27.8652H67.6797ZM88.9896 17.0622H85.0825V29.2497H86.717V24.6282H88.9984C89.4642 24.6655 89.932 24.5954 90.3724 24.4222C90.8129 24.249 91.2167 23.9764 91.5585 23.6215C91.9004 23.2666 92.1731 22.8369 92.3595 22.3592C92.546 21.8816 92.6422 21.3662 92.6422 20.8452C92.6422 20.3242 92.546 19.8088 92.3595 19.3312C92.1731 18.8535 91.9004 18.4238 91.5585 18.0689C91.2167 17.714 90.8129 17.4414 90.3724 17.2682C89.932 17.095 89.4642 17.0249 88.9984 17.0622H88.9896ZM88.9896 22.9122H86.7083V18.7587H89.0246C89.5219 18.7587 89.9987 18.979 90.3503 19.3712C90.702 19.7635 90.8995 20.2954 90.8995 20.8501C90.8995 21.4047 90.702 21.9367 90.3503 22.3289C89.9987 22.7211 89.5219 22.9414 89.0246 22.9414L88.9896 22.9122ZM99.0677 21.1572C98.4727 21.1175 97.8802 21.2726 97.3631 21.6035C96.846 21.9343 96.4268 22.4265 96.157 23.0195L97.608 23.6922C97.7511 23.3981 97.9677 23.1567 98.2315 22.9975C98.4953 22.8382 98.795 22.7679 99.0939 22.7952C99.3014 22.7682 99.5117 22.7875 99.7124 22.8521C99.9131 22.9166 100.1 23.0251 100.263 23.1713C100.426 23.3174 100.561 23.4982 100.66 23.7031C100.76 23.9081 100.821 24.1331 100.842 24.365V24.4917C100.317 24.1816 99.7317 24.0209 99.1376 24.0237C97.573 24.0237 95.991 24.9987 95.991 26.7635C96.0064 27.1397 96.0893 27.5088 96.2348 27.8487C96.3803 28.1886 96.5854 28.4925 96.8381 28.7425C97.0907 28.9925 97.3857 29.1834 97.7056 29.304C98.0255 29.4246 98.3638 29.4725 98.7006 29.4447C99.1122 29.4777 99.5242 29.3864 99.8933 29.1806C100.262 28.9747 100.575 28.6618 100.798 28.2747H100.851V29.2497H102.424V24.5599C102.424 22.4247 100.973 21.1865 99.1114 21.1865L99.0677 21.1572ZM98.8667 27.836C98.3335 27.836 97.5905 27.5337 97.5905 26.8025C97.5905 25.8275 98.517 25.5057 99.3387 25.5057C99.8579 25.4914 100.371 25.6328 100.825 25.9152C100.77 26.4431 100.546 26.9311 100.194 27.2894C99.8426 27.6478 99.3866 27.8523 98.9104 27.8652L98.8667 27.836ZM108.158 21.4497L106.288 26.7342H106.235L104.295 21.4497H102.547L105.457 28.8402L103.796 32.945H105.501L109.976 21.4497H108.158ZM93.4649 29.2497H95.0994V17.0622H93.4649V29.2497Z"
    fill="white" />
  <path
    d="M41.394 10.0448C41.4089 10.4024 41.3585 10.7597 41.2458 11.0949C41.1331 11.4301 40.9605 11.7363 40.7385 11.9948C40.4906 12.282 40.1913 12.5078 39.8599 12.6573C39.5286 12.8068 39.1727 12.8768 38.8155 12.8626C38.2736 12.8578 37.745 12.6748 37.2959 12.3364C36.8468 11.998 36.4972 11.5193 36.2909 10.9603C36.0847 10.4012 36.0309 9.7867 36.1364 9.19373C36.2419 8.60075 36.5019 8.05568 36.8838 7.62682C37.1349 7.34093 37.4358 7.11555 37.7681 6.96461C38.1004 6.81368 38.4569 6.7404 38.8155 6.74932C39.1851 6.74794 39.5509 6.83089 39.8906 6.99307C40.2069 7.13537 40.4885 7.35923 40.7123 7.64632L40.249 8.16306C40.0746 7.93159 39.8542 7.74855 39.6054 7.62841C39.3567 7.50827 39.0862 7.45432 38.8155 7.47082C38.5425 7.46932 38.272 7.52934 38.0203 7.64728C37.7686 7.76522 37.5408 7.93864 37.3506 8.15716C37.1604 8.37567 37.0118 8.63477 36.9135 8.91893C36.8153 9.20309 36.7695 9.50644 36.7789 9.81082C36.7732 10.2653 36.8883 10.7115 37.1096 11.0931C37.331 11.4747 37.6487 11.7747 38.0227 11.9551C38.3967 12.1355 38.8102 12.1884 39.2111 12.1069C39.612 12.0255 39.9823 11.8135 40.2752 11.4976C40.5442 11.1724 40.6993 10.7502 40.7123 10.3081H38.8155V9.60607H41.3591C41.3824 9.75087 41.3941 9.8977 41.394 10.0448ZM45.3973 7.60731H43.0373V9.45982H45.1875V10.1618H43.0373V12.0143H45.3973V12.7358H42.3381V6.88581H45.3973V7.60731ZM48.2643 12.7358H47.5912V7.60731H46.1228V6.88581H49.7677V7.60731H48.2643V12.7358ZM52.3375 12.7358V6.88581H53.0105V12.7358H52.3375ZM55.9998 12.7358H55.3268V7.60731H53.8584V6.88581H57.4595V7.60731H55.9998V12.7358ZM64.2861 11.9753C63.7751 12.5421 63.0837 12.8603 62.3631 12.8603C61.6425 12.8603 60.9511 12.5421 60.4401 11.9753C59.9435 11.3889 59.6668 10.6127 59.6668 9.80594C59.6668 8.99919 59.9435 8.22301 60.4401 7.63657C60.692 7.35356 60.9916 7.12896 61.3216 6.97568C61.6516 6.82241 62.0056 6.7435 62.3631 6.7435C62.7206 6.7435 63.0746 6.82241 63.4046 6.97568C63.7346 7.12896 64.0342 7.35356 64.2861 7.63657C64.7847 8.22189 65.0627 8.99849 65.0627 9.80594C65.0627 10.6134 64.7847 11.39 64.2861 11.9753ZM60.9384 11.4878C61.3168 11.9082 61.8291 12.1442 62.3631 12.1442C62.8971 12.1442 63.4094 11.9082 63.7878 11.4878C64.1613 11.0286 64.3681 10.4308 64.3681 9.81082C64.3681 9.19082 64.1613 8.59302 63.7878 8.13382C63.4094 7.71347 62.8971 7.47747 62.3631 7.47747C61.8291 7.47747 61.3168 7.71347 60.9384 8.13382C60.5649 8.59302 60.3581 9.19082 60.3581 9.81082C60.3581 10.4308 60.5649 11.0286 60.9384 11.4878ZM66.008 12.7358V6.88581H66.8296L69.3819 11.4391V6.88581H70.055V12.7358H69.3557L66.6898 7.96807V12.7358H66.008Z"
    fill="white" />
  <path fill-rule="evenodd" clip-rule="evenodd"
    d="M62.3631 6.841C62.0171 6.841 61.6746 6.91736 61.3552 7.06569C61.0362 7.21387 60.7465 7.43093 60.5029 7.7044C60.0221 8.27264 59.7542 9.02449 59.7542 9.80594C59.7542 10.5873 60.022 11.3391 60.5027 11.9073C60.9973 12.4552 61.666 12.7628 62.3631 12.7628C63.0602 12.7628 63.729 12.4552 64.2236 11.9071C64.7062 11.3401 64.9753 10.5879 64.9753 9.80594C64.9753 9.02386 64.7062 8.27163 64.2234 7.70453C63.9798 7.431 63.6901 7.21389 63.371 7.06569C63.0516 6.91736 62.7091 6.841 62.3631 6.841ZM61.288 6.88567C61.6287 6.72745 61.9941 6.646 62.3631 6.646C62.7321 6.646 63.0975 6.72745 63.4382 6.88567C63.7789 7.04389 64.0881 7.27574 64.3481 7.56787L64.3494 7.56939C64.8635 8.17283 65.1501 8.97349 65.1501 9.80594C65.1501 10.6384 64.8635 11.439 64.3494 12.0425L64.3477 12.0445C63.8204 12.6295 63.1068 12.9578 62.3631 12.9578C61.6194 12.9578 60.9059 12.6294 60.3785 12.0445L60.3766 12.0423C59.8646 11.4378 59.5793 10.6376 59.5793 9.80594C59.5793 8.97429 59.8646 8.17415 60.3766 7.56961L60.3781 7.56785C60.6381 7.27572 60.9473 7.04389 61.288 6.88567ZM38.8136 6.84679C38.4669 6.83817 38.1223 6.90901 37.8011 7.05491C37.4799 7.20081 37.1889 7.41868 36.9463 7.69504L36.9458 7.69553C36.576 8.11078 36.3242 8.63855 36.2221 9.2127C36.12 9.78685 36.1721 10.3819 36.3718 10.9232C36.5715 11.4644 36.91 11.928 37.3448 12.2556C37.7796 12.5833 38.2915 12.7605 38.8162 12.7651L38.8186 12.7651C39.1636 12.7788 39.5072 12.7113 39.8271 12.5669C40.147 12.4225 40.4361 12.2046 40.6754 11.9273C40.8892 11.6783 41.0554 11.3835 41.1639 11.0607C41.2725 10.7378 41.321 10.3938 41.3067 10.0493L41.394 10.0448L41.3066 10.0448C41.3067 9.93056 41.2994 9.81653 41.2847 9.70357H38.9029V10.2106H40.8026L40.7996 10.3112C40.786 10.7768 40.6227 11.2214 40.3395 11.5637L40.3361 11.5678C40.0307 11.8971 39.6446 12.118 39.2267 12.2029C38.8089 12.2877 38.3778 12.2327 37.988 12.0446C37.5981 11.8565 37.267 11.5439 37.0362 11.1461C36.8059 10.7489 36.686 10.2847 36.6915 9.81181C36.682 9.49512 36.7298 9.17952 36.832 8.88385C36.9344 8.58744 37.0895 8.31717 37.2879 8.08924C37.4863 7.86131 37.7239 7.68041 37.9865 7.55739C38.2482 7.43474 38.5295 7.37214 38.8134 7.3733C39.0967 7.35648 39.3797 7.41317 39.6402 7.53894C39.8723 7.65101 40.0808 7.81522 40.2528 8.02091L40.5917 7.64294C40.3865 7.3997 40.1362 7.20869 39.8579 7.08349L39.8562 7.08272C39.5275 6.92578 39.1734 6.84549 38.8158 6.84681L38.8136 6.84679ZM41.4815 10.0426C41.4966 10.4126 41.4442 10.7823 41.3276 11.1291C41.2108 11.4767 41.0318 11.7942 40.8016 12.0623C40.5452 12.3594 40.2354 12.593 39.8927 12.7477C39.5504 12.9022 39.1827 12.9745 38.8136 12.9601C38.2549 12.9549 37.7099 12.7661 37.2469 12.4172C36.7836 12.0681 36.4229 11.5742 36.2101 10.9974C35.9973 10.4206 35.9418 9.78655 36.0506 9.17475C36.1594 8.56306 36.4276 8.00078 36.8216 7.55834C37.081 7.26304 37.3919 7.03023 37.7351 6.87431C38.0781 6.7185 38.4461 6.64278 38.8164 6.65181C39.1971 6.65057 39.5741 6.73605 39.9242 6.90303C40.2529 7.05111 40.5456 7.28389 40.7782 7.58234L40.8317 7.65096L40.2434 8.30717L40.1821 8.22581C40.0164 8.00591 39.8071 7.83202 39.5707 7.71789C39.3344 7.60375 39.0775 7.55249 38.8203 7.56817L38.8151 7.56849C38.5538 7.56706 38.295 7.62432 38.0542 7.73717C37.8133 7.85003 37.5953 8.01598 37.4133 8.22507C37.2313 8.43417 37.0891 8.6821 36.9951 8.95401C36.9011 9.22592 36.8573 9.5162 36.8663 9.80745L36.8664 9.81219C36.861 10.2474 36.971 10.6747 37.183 11.0401C37.395 11.4056 37.6992 11.6928 38.0574 11.8656C38.4155 12.0384 38.8115 12.089 39.1954 12.011C39.5785 11.9332 39.9324 11.7308 40.2127 11.4294C40.4459 11.1466 40.5884 10.7865 40.6193 10.4056H38.7281V9.50857H41.4322L41.4451 9.58883C41.4692 9.73859 41.4814 9.89043 41.4815 10.0426ZM42.2506 6.78831H45.4847V7.70481H43.1247V9.36231H45.2749V10.2593H43.1247V11.9168H45.4847V12.8333H42.2506V6.78831ZM42.4255 6.98331V12.6383H45.3099V12.1118H42.9499V10.0643H45.1001V9.55731H42.9499V7.50981H45.3099V6.98331H42.4255ZM46.0354 6.78831H49.8551V7.70481H48.3517V12.8333H47.5038V7.70481H46.0354V6.78831ZM46.2102 6.98331V7.50981H47.6786V12.6383H48.1769V7.50981H49.6803V6.98331H46.2102ZM52.2501 6.78831H53.0979V12.8333H52.2501V6.78831ZM52.4249 6.98331V12.6383H52.9231V6.98331H52.4249ZM53.7709 6.78831H57.5469V7.70481H56.0872V12.8333H55.2394V7.70481H53.7709V6.78831ZM53.9458 6.98331V7.50981H55.4142V12.6383H55.9124V7.50981H57.3721V6.98331H53.9458ZM65.9206 6.78831H66.878L69.2945 11.0992V6.78831H70.1424V12.8333H69.3072L66.7772 8.30862V12.8333H65.9206V6.78831ZM66.0954 6.98331V12.6383H66.6024V7.62751L69.4042 12.6383H69.9675V6.98331H69.4693V11.7789L66.7812 6.98331H66.0954ZM60.8767 8.06473C61.2715 7.62619 61.8059 7.37997 62.3631 7.37997C62.9203 7.37997 63.4547 7.62619 63.8495 8.06473L63.8527 8.06822C64.2407 8.54537 64.4555 9.1666 64.4555 9.81082C64.4555 10.455 64.2406 11.0762 63.8526 11.5533L63.8496 11.557C63.4548 11.9955 62.9203 12.2417 62.3631 12.2417C61.8059 12.2417 61.2715 11.9954 60.8767 11.5569L60.9384 11.4878L60.8736 11.5533C60.4856 11.0762 60.2707 10.455 60.2707 9.81082C60.2707 9.1666 60.4856 8.54545 60.8736 8.06831L60.8767 8.06473ZM61.0016 11.4205C61.3635 11.8215 61.8529 12.0467 62.3631 12.0467C62.8733 12.0467 63.3627 11.8215 63.7246 11.4205C64.0825 10.9795 64.2807 10.4058 64.2807 9.81082C64.2807 9.21586 64.0825 8.64218 63.7246 8.20115C63.3627 7.8001 62.8733 7.57497 62.3631 7.57497C61.8529 7.57497 61.3635 7.8001 61.0016 8.20115C60.6437 8.64218 60.4455 9.21586 60.4455 9.81082C60.4455 10.4058 60.6437 10.9795 61.0016 11.4205Z"
    fill="white" />
  <path
    d="M9.12524 7.35097C8.84035 7.7323 8.69655 8.22047 8.72316 8.71597V30.283C8.69655 30.7785 8.84035 31.2666 9.12524 31.648L9.18642 31.7162L20.0162 19.6457V19.363L9.18642 7.28271L9.12524 7.35097Z"
    fill="url(#paint0_linear)" />
  <path
    d="M23.5999 23.6727L20.0162 19.6459V19.3632L23.5999 15.3267L23.6786 15.3754L27.9703 18.0957C29.194 18.8659 29.194 20.1334 27.9703 20.9134L23.6961 23.6239L23.5999 23.6727Z"
    fill="url(#paint1_linear)" />
  <path
    d="M23.7049 23.6145L20.0163 19.5L9.12531 31.6485C9.37473 31.8931 9.69292 32.0328 10.0249 32.0435C10.3568 32.0541 10.6817 31.9351 10.9434 31.707L23.7136 23.6145"
    fill="url(#paint2_linear)" />
  <path
    d="M23.7049 15.3852L10.9347 7.29269C10.673 7.06456 10.3481 6.94555 10.0162 6.95623C9.68419 6.96691 9.36601 7.10661 9.11658 7.35119L20.0163 19.4997L23.7049 15.3852Z"
    fill="url(#paint3_linear)" />
  <path opacity="0.2"
    d="M23.6 23.5264L10.9346 31.5701C10.6823 31.7806 10.3757 31.8943 10.0606 31.8943C9.74548 31.8943 9.43884 31.7806 9.18649 31.5701L9.12531 31.6384L9.18649 31.7066C9.43827 31.9186 9.74512 32.0333 10.0606 32.0333C10.376 32.0333 10.6829 31.9186 10.9346 31.7066L23.7049 23.6141L23.6 23.5264Z"
    fill="black" />
  <path opacity="0.12"
    d="M9.12524 31.512C8.84035 31.1307 8.69655 30.6425 8.72316 30.147V30.2933C8.69655 30.7888 8.84035 31.2769 9.12524 31.6583L9.18642 31.59L9.12524 31.512ZM27.9703 20.7675L23.5999 23.5268L23.6786 23.6145L27.9703 20.904C28.2138 20.7764 28.4228 20.5794 28.5763 20.3329C28.7298 20.0864 28.8222 19.7991 28.8443 19.5C28.7952 19.7717 28.6908 20.0273 28.5393 20.247C28.3878 20.4667 28.1931 20.6448 27.9703 20.7675Z"
    fill="black" />
  <path opacity="0.25"
    d="M10.9346 7.42889L27.9703 18.2319C28.1932 18.3546 28.3878 18.5326 28.5394 18.7524C28.6909 18.9721 28.7952 19.2277 28.8444 19.4994C28.8223 19.2003 28.7298 18.913 28.5763 18.6665C28.4229 18.42 28.2138 18.223 27.9703 18.0954L10.9346 7.29239C9.71092 6.52214 8.71448 7.16564 8.71448 8.72564V8.87189C8.7407 7.30214 9.71966 6.65864 10.9346 7.42889Z"
    fill="white" />
  <defs>
    <linearGradient id="paint0_linear" x1="19.0547" y1="8.49172" x2="2.79141" y2="23.0715"
      gradientUnits="userSpaceOnUse">
      <stop stop-color="#00A0FF" />
      <stop offset="0.01" stop-color="#00A1FF" />
      <stop offset="0.26" stop-color="#00BEFF" />
      <stop offset="0.51" stop-color="#00D2FF" />
      <stop offset="0.76" stop-color="#00DFFF" />
      <stop offset="1" stop-color="#00E3FF" />
    </linearGradient>
    <linearGradient id="paint1_linear" x1="29.5699" y1="19.4997" x2="8.42602" y2="19.4997"
      gradientUnits="userSpaceOnUse">
      <stop stop-color="#FFE000" />
      <stop offset="0.41" stop-color="#FFBD00" />
      <stop offset="0.78" stop-color="#FFA500" />
      <stop offset="1" stop-color="#FF9C00" />
    </linearGradient>
    <linearGradient id="paint2_linear" x1="21.7032" y1="21.7425" x2="-0.354882" y2="41.5086"
      gradientUnits="userSpaceOnUse">
      <stop stop-color="#FF3A44" />
      <stop offset="1" stop-color="#C31162" />
    </linearGradient>
    <linearGradient id="paint3_linear" x1="6.38073" y1="0.175191" x2="16.2279" y2="9.00303"
      gradientUnits="userSpaceOnUse">
      <stop stop-color="#32A071" />
      <stop offset="0.07" stop-color="#2DA771" />
      <stop offset="0.48" stop-color="#15CF74" />
      <stop offset="0.8" stop-color="#06E775" />
      <stop offset="1" stop-color="#00F076" />
    </linearGradient>
  </defs>
</svg>