<svg width="118" height="39" viewBox="0 0 118 39" fill="none" xmlns="http://www.w3.org/2000/svg">
  <path
    d="M113.63 0H4.37037C1.95668 0 0 2.18261 0 4.875V34.125C0 36.8174 1.95668 39 4.37037 39H113.63C116.043 39 118 36.8174 118 34.125V4.875C118 2.18261 116.043 0 113.63 0Z"
    fill="black" />
  <path
    d="M113.63 0.78C114.603 0.78 115.537 1.21144 116.226 1.9794C116.914 2.74736 117.301 3.78894 117.301 4.875V34.125C117.301 35.2111 116.914 36.2526 116.226 37.0206C115.537 37.7886 114.603 38.22 113.63 38.22H4.37037C3.39673 38.22 2.46297 37.7886 1.7745 37.0206C1.08604 36.2526 0.699259 35.2111 0.699259 34.125V4.875C0.699259 3.78894 1.08604 2.74736 1.7745 1.9794C2.46297 1.21144 3.39673 0.78 4.37037 0.78H113.63ZM113.63 0H4.37037C3.21128 0 2.09966 0.513615 1.28005 1.42785C0.460448 2.34209 0 3.58207 0 4.875V34.125C0 35.4179 0.460448 36.6579 1.28005 37.5721C2.09966 38.4864 3.21128 39 4.37037 39H113.63C114.789 39 115.9 38.4864 116.72 37.5721C117.54 36.6579 118 35.4179 118 34.125V4.875C118 3.58207 117.54 2.34209 116.72 1.42785C115.9 0.513615 114.789 0 113.63 0Z"
    fill="#A6A6A6" />
  <path
    d="M28.0689 18.83C28.0448 15.8359 30.2667 14.3793 30.3683 14.3114C29.1099 12.2649 27.1595 11.9853 26.4741 11.963C24.8359 11.7707 23.2469 13.0564 22.4124 13.0564C21.5612 13.0564 20.2762 11.9815 18.8912 12.0131C17.109 12.0438 15.4416 13.1948 14.5272 14.9822C12.64 18.6266 14.0475 23.9822 15.8556 26.928C16.76 28.3707 17.8169 29.9816 19.2002 29.9249C20.5535 29.8627 21.059 28.9625 22.6922 28.9625C24.3104 28.9625 24.7851 29.9249 26.1959 29.8887C27.6483 29.8627 28.5628 28.4395 29.4356 26.9837C30.4808 25.3301 30.9005 23.7016 30.9172 23.618C30.883 23.605 28.0964 22.4187 28.0689 18.83Z"
    fill="white" />
  <path
    d="M25.4039 10.0252C26.1318 9.0098 26.6298 7.6284 26.4916 6.22656C25.4381 6.27859 24.1205 7.03943 23.3618 8.03251C22.6906 8.90762 22.0909 10.342 22.2458 11.6909C23.4293 11.7893 24.6444 11.0248 25.4039 10.0252Z"
    fill="white" />
  <path
    d="M47.6542 29.7179H45.7628L44.7268 26.0865H41.1257L40.1388 29.7179H38.2974L41.8652 17.355H44.0689L47.6542 29.7179ZM44.4145 24.563L43.4776 21.3348C43.3784 21.005 43.1927 20.2283 42.9187 19.0058H42.8854C42.7763 19.5316 42.6006 20.3082 42.3591 21.3348L41.4388 24.563H44.4145Z"
    fill="white" />
  <path
    d="M56.8291 25.1508C56.8291 26.6669 56.4618 27.8653 55.7273 28.745C55.0694 29.5282 54.2524 29.9193 53.2771 29.9193C52.2244 29.9193 51.4682 29.4975 51.0077 28.654H50.9744V33.35H49.1988V23.7378C49.1988 22.7847 49.1763 21.8064 49.133 20.8031H50.6945L50.7936 22.2161H50.827C51.4191 21.1515 52.3177 20.6201 53.5236 20.6201C54.4664 20.6201 55.2534 21.0354 55.883 21.8668C56.5143 22.6992 56.8291 23.7935 56.8291 25.1508ZM55.0202 25.2232C55.0202 24.3556 54.8453 23.6403 54.4939 23.0773C54.1099 22.4902 53.5944 22.1966 52.9482 22.1966C52.5101 22.1966 52.112 22.3601 51.7564 22.6825C51.3999 23.0076 51.1667 23.4322 51.0576 23.958C51.0027 24.2032 50.9752 24.4039 50.9752 24.5618V26.0482C50.9752 26.6966 51.1534 27.2438 51.5099 27.6906C51.8663 28.1375 52.3294 28.3604 52.899 28.3604C53.5678 28.3604 54.0883 28.0724 54.4606 27.4983C54.8337 26.9233 55.0202 26.1652 55.0202 25.2232Z"
    fill="white" />
  <path
    d="M66.0213 25.1508C66.0213 26.6669 65.654 27.8653 64.9187 28.745C64.2616 29.5282 63.4446 29.9193 62.4693 29.9193C61.4166 29.9193 60.6604 29.4975 60.2007 28.654H60.1674V33.35H58.3918V23.7378C58.3918 22.7847 58.3693 21.8064 58.326 20.8031H59.8876L59.9867 22.2161H60.02C60.6113 21.1515 61.5099 20.6201 62.7167 20.6201C63.6586 20.6201 64.4456 21.0354 65.0769 21.8668C65.7057 22.6992 66.0213 23.7935 66.0213 25.1508ZM64.2124 25.2232C64.2124 24.3556 64.0367 23.6403 63.6852 23.0773C63.3013 22.4902 62.7875 22.1966 62.1404 22.1966C61.7015 22.1966 61.3042 22.3601 60.9478 22.6825C60.5913 23.0076 60.3589 23.4322 60.2498 23.958C60.1957 24.2032 60.1674 24.4039 60.1674 24.5618V26.0482C60.1674 26.6966 60.3456 27.2438 60.7004 27.6906C61.0568 28.1365 61.5199 28.3604 62.0912 28.3604C62.76 28.3604 63.2805 28.0724 63.6528 27.4983C64.0259 26.9233 64.2124 26.1652 64.2124 25.2232Z"
    fill="white" />
  <path
    d="M76.2985 26.251C76.2985 27.3026 75.9712 28.1582 75.3141 28.8187C74.592 29.5405 73.5868 29.9009 72.2951 29.9009C71.1025 29.9009 70.1464 29.6445 69.4227 29.1308L69.8341 27.48C70.6136 28.0058 71.4689 28.2696 72.4009 28.2696C73.0696 28.2696 73.5901 28.1006 73.9641 27.7643C74.3363 27.428 74.5221 26.9765 74.5221 26.4135C74.5221 25.9119 74.3688 25.4892 74.0615 25.1464C73.7559 24.8036 73.2453 24.4849 72.5324 24.1905C70.592 23.3832 69.6226 22.2006 69.6226 20.6455C69.6226 19.6291 69.9623 18.7958 70.6428 18.1474C71.3207 17.498 72.2251 17.1738 73.3561 17.1738C74.3646 17.1738 75.2025 17.3698 75.8712 17.7609L75.4273 19.3755C74.8027 18.9965 74.0965 18.807 73.3061 18.807C72.6815 18.807 72.1935 18.9788 71.8437 19.3207C71.548 19.6264 71.3998 19.9989 71.3998 20.4401C71.3998 20.9288 71.5689 21.3329 71.9086 21.6506C72.2043 21.9442 72.7415 22.2619 73.521 22.6047C74.4746 23.0329 75.175 23.5337 75.6255 24.1078C76.0744 24.68 76.2985 25.3963 76.2985 26.251Z"
    fill="white" />
  <path
    d="M82.1689 22.2896H80.2118V26.6178C80.2118 27.7186 80.5566 28.2686 81.2478 28.2686C81.5651 28.2686 81.8283 28.2379 82.0365 28.1766L82.0856 29.6806C81.7358 29.8265 81.2753 29.8999 80.7048 29.8999C80.0036 29.8999 79.4556 29.6611 79.06 29.1846C78.666 28.7071 78.4678 27.9063 78.4678 26.7813V22.2878H77.3019V20.8014H78.4678V19.1692L80.2118 18.582V20.8014H82.1689V22.2896Z"
    fill="white" />
  <path
    d="M90.9994 25.1876C90.9994 26.5578 90.6479 27.6828 89.9467 28.5626C89.2113 29.4683 88.2352 29.9198 87.0185 29.9198C85.8458 29.9198 84.9122 29.486 84.216 28.6183C83.5197 27.7506 83.1716 26.6553 83.1716 25.3353C83.1716 23.9539 83.5297 22.8224 84.2485 21.9426C84.9655 21.0619 85.9333 20.6216 87.15 20.6216C88.3227 20.6216 89.2662 21.0554 89.9783 21.924C90.6596 22.7666 90.9994 23.8545 90.9994 25.1876ZM89.1571 25.2516C89.1571 24.4295 88.9997 23.7244 88.6808 23.1363C88.3085 22.4247 87.7763 22.0699 87.0867 22.0699C86.373 22.0699 85.8308 22.4257 85.4586 23.1363C85.1396 23.7253 84.9822 24.4416 84.9822 25.2888C84.9822 26.111 85.1396 26.8161 85.4586 27.4032C85.8425 28.1148 86.3788 28.4697 87.0709 28.4697C87.7488 28.4697 88.281 28.1074 88.6649 27.3846C88.9922 26.7854 89.1571 26.0729 89.1571 25.2516Z"
    fill="white" />
  <path
    d="M96.7705 22.545C96.5947 22.5087 96.4073 22.4902 96.2108 22.4902C95.5862 22.4902 95.1031 22.7531 94.7634 23.2798C94.4677 23.7443 94.3195 24.3314 94.3195 25.0402V29.7177H92.5447L92.5614 23.6105C92.5614 22.5831 92.5389 21.6476 92.4948 20.8041H94.0413L94.1063 22.5097H94.1554C94.3428 21.9235 94.6384 21.4516 95.0432 21.0976C95.4388 20.779 95.866 20.6201 96.3266 20.6201C96.4906 20.6201 96.6389 20.6331 96.7705 20.6563V22.545Z"
    fill="white" />
  <path
    d="M104.711 24.8388C104.711 25.1936 104.691 25.4928 104.647 25.7371H99.3198C99.3406 26.6178 99.5979 27.2913 100.093 27.7558C100.542 28.171 101.122 28.3791 101.835 28.3791C102.624 28.3791 103.343 28.2388 103.99 27.9574L104.268 29.3323C103.512 29.7001 102.619 29.8832 101.589 29.8832C100.35 29.8832 99.3772 29.4763 98.6693 28.6634C97.9631 27.8505 97.6092 26.759 97.6092 25.3896C97.6092 24.0454 97.9381 22.926 98.5969 22.0332C99.2865 21.0801 100.218 20.6035 101.391 20.6035C102.543 20.6035 103.415 21.0801 104.007 22.0332C104.476 22.7903 104.711 23.7268 104.711 24.8388ZM103.018 24.325C103.03 23.7379 102.914 23.2307 102.674 22.8024C102.366 22.2515 101.894 21.9766 101.259 21.9766C100.678 21.9766 100.206 22.245 99.8453 22.7838C99.5496 23.2121 99.3739 23.7258 99.3198 24.3241H103.018V24.325Z"
    fill="white" />
  <path
    d="M43.8276 9.74942C43.8276 10.8428 43.5336 11.6659 42.9465 12.2187C42.4026 12.7287 41.6298 12.9841 40.6287 12.9841C40.1323 12.9841 39.7076 12.96 39.352 12.9117V6.93738C39.8159 6.85377 40.3156 6.81104 40.8552 6.81104C41.8088 6.81104 42.5275 7.04235 43.0122 7.50499C43.5552 8.02801 43.8276 8.77584 43.8276 9.74942ZM42.9073 9.77636C42.9073 9.06754 42.7391 8.52408 42.4026 8.14506C42.0662 7.76696 41.5748 7.57745 40.9277 7.57745C40.6529 7.57745 40.4188 7.59789 40.2248 7.64062V12.1824C40.3322 12.201 40.5288 12.2094 40.8144 12.2094C41.4824 12.2094 41.9979 12.0022 42.361 11.5879C42.7241 11.1736 42.9073 10.5697 42.9073 9.77636Z"
    fill="white" />
  <path
    d="M48.7071 10.704C48.7071 11.3775 48.5347 11.9293 48.1899 12.3622C47.8284 12.8072 47.3496 13.0293 46.7516 13.0293C46.1753 13.0293 45.7164 12.8165 45.3741 12.3892C45.0327 11.9628 44.8619 11.4249 44.8619 10.7765C44.8619 10.0983 45.0377 9.54184 45.3908 9.10986C45.7439 8.67788 46.2186 8.46143 46.8166 8.46143C47.3929 8.46143 47.8559 8.67416 48.2065 9.10057C48.5397 9.5149 48.7071 10.05 48.7071 10.704ZM47.8018 10.7356C47.8018 10.3315 47.7235 9.98496 47.5678 9.69605C47.3846 9.34675 47.1239 9.1721 46.7849 9.1721C46.4343 9.1721 46.1678 9.34675 45.9846 9.69605C45.828 9.98496 45.7506 10.337 45.7506 10.7532C45.7506 11.1573 45.8288 11.5039 45.9846 11.7928C46.1736 12.1421 46.4368 12.3167 46.7766 12.3167C47.1097 12.3167 47.3712 12.1393 47.5594 11.7835C47.721 11.489 47.8018 11.1397 47.8018 10.7356Z"
    fill="white" />
  <path
    d="M55.2496 8.55078L54.0212 12.93H53.2217L52.7129 11.0284C52.5838 10.5537 52.4788 10.0818 52.3972 9.61354H52.3814C52.3056 10.0948 52.2007 10.5658 52.0658 11.0284L51.5253 12.93H50.7166L49.5615 8.55078H50.4584L50.9023 10.6326C51.0097 11.125 51.098 11.5941 51.1688 12.0382H51.1846C51.2496 11.6722 51.357 11.2058 51.5086 10.6419L52.0658 8.55171H52.777L53.3108 10.5973C53.4399 11.0962 53.5448 11.5765 53.6256 12.0391H53.6498C53.7089 11.5886 53.798 11.1083 53.9163 10.5973L54.3927 8.55171H55.2496V8.55078Z"
    fill="white" />
  <path
    d="M59.7745 12.9302H58.9017V10.4219C58.9017 9.64902 58.6385 9.26256 58.1105 9.26256C57.8515 9.26256 57.6424 9.36846 57.48 9.5812C57.3193 9.79394 57.2377 10.0448 57.2377 10.3318V12.9293H56.3649V9.8023C56.3649 9.4177 56.354 9.00058 56.3332 8.5491H57.1003L57.1411 9.23376H57.1652C57.2668 9.02102 57.4184 8.84544 57.6174 8.70517C57.854 8.54166 58.1188 8.45898 58.4086 8.45898C58.7751 8.45898 59.0799 8.5909 59.3222 8.85566C59.6237 9.17988 59.7745 9.66388 59.7745 10.3067V12.9302Z"
    fill="white" />
  <path d="M62.1812 12.9301H61.3093V6.5415H62.1812V12.9301Z" fill="white" />
  <path
    d="M67.3198 10.704C67.3198 11.3775 67.1474 11.9293 66.8027 12.3622C66.4412 12.8072 65.9615 13.0293 65.3644 13.0293C64.7872 13.0293 64.3283 12.8165 63.9869 12.3892C63.6454 11.9628 63.4747 11.4249 63.4747 10.7765C63.4747 10.0983 63.6504 9.54184 64.0035 9.10986C64.3567 8.67788 64.8314 8.46143 65.4285 8.46143C66.0056 8.46143 66.4679 8.67416 66.8193 9.10057C67.1524 9.5149 67.3198 10.05 67.3198 10.704ZM66.4137 10.7356C66.4137 10.3315 66.3354 9.98496 66.1797 9.69605C65.9973 9.34675 65.7358 9.1721 65.3977 9.1721C65.0462 9.1721 64.7797 9.34675 64.5973 9.69605C64.4408 9.98496 64.3633 10.337 64.3633 10.7532C64.3633 11.1573 64.4416 11.5039 64.5973 11.7928C64.7864 12.1421 65.0496 12.3167 65.3894 12.3167C65.7225 12.3167 65.9832 12.1393 66.1714 11.7835C66.3338 11.489 66.4137 11.1397 66.4137 10.7356Z"
    fill="white" />
  <path
    d="M71.5439 12.9298H70.7602L70.6952 12.4254H70.6711C70.4029 12.8277 70.0207 13.0293 69.5243 13.0293C69.1537 13.0293 68.8539 12.8964 68.6282 12.6326C68.4233 12.3929 68.3209 12.0947 68.3209 11.7407C68.3209 11.2057 68.5207 10.7978 68.923 10.5154C69.3244 10.233 69.8891 10.0946 70.6161 10.1011V10.0193C70.6161 9.44244 70.3446 9.15445 69.8008 9.15445C69.4135 9.15445 69.0721 9.26314 68.7773 9.47867L68.5999 8.83952C68.9646 8.58777 69.4152 8.46143 69.9465 8.46143C70.9726 8.46143 71.4873 9.06527 71.4873 10.2729V11.8857C71.4873 12.3232 71.5064 12.6716 71.5439 12.9298ZM70.6378 11.4249V10.7495C69.675 10.7309 69.1937 11.0254 69.1937 11.6321C69.1937 11.8606 69.2486 12.0315 69.3611 12.1458C69.4735 12.2601 69.6167 12.3167 69.7875 12.3167C69.979 12.3167 70.1581 12.2489 70.3213 12.1142C70.4854 11.9786 70.5861 11.8067 70.6236 11.5958C70.6328 11.5484 70.6378 11.4908 70.6378 11.4249Z"
    fill="white" />
  <path
    d="M76.503 12.9301H75.7285L75.6877 12.2269H75.6635C75.4162 12.762 74.9947 13.0295 74.4026 13.0295C73.9296 13.0295 73.5356 12.8224 73.2233 12.4081C72.911 11.9937 72.7553 11.4558 72.7553 10.7953C72.7553 10.0865 72.9243 9.5124 73.2641 9.07392C73.5931 8.66517 73.9962 8.46079 74.4759 8.46079C75.0031 8.46079 75.372 8.65866 75.5819 9.05534H75.5985V6.5415H76.4722V11.7503C76.4722 12.1767 76.4822 12.5697 76.503 12.9301ZM75.5985 11.0833V10.3531C75.5985 10.2268 75.5902 10.1246 75.5744 10.0466C75.5252 9.81246 75.4195 9.61552 75.2587 9.45666C75.0963 9.29781 74.9006 9.21791 74.6749 9.21791C74.3493 9.21791 74.0945 9.36191 73.9071 9.65082C73.7214 9.93973 73.6272 10.3085 73.6272 10.7591C73.6272 11.192 73.7164 11.5432 73.8954 11.8135C74.0845 12.1015 74.3393 12.2455 74.6583 12.2455C74.9448 12.2455 75.1738 12.1256 75.3479 11.885C75.5161 11.663 75.5985 11.3955 75.5985 11.0833Z"
    fill="white" />
  <path
    d="M83.9678 10.704C83.9678 11.3775 83.7955 11.9293 83.4507 12.3622C83.0892 12.8072 82.6112 13.0293 82.0124 13.0293C81.4369 13.0293 80.978 12.8165 80.6349 12.3892C80.2934 11.9628 80.1227 11.4249 80.1227 10.7765C80.1227 10.0983 80.2984 9.54184 80.6516 9.10986C81.0047 8.67788 81.4794 8.46143 82.0782 8.46143C82.6537 8.46143 83.1175 8.67416 83.4673 9.10057C83.8005 9.5149 83.9678 10.05 83.9678 10.704ZM83.0634 10.7356C83.0634 10.3315 82.9851 9.98496 82.8294 9.69605C82.6453 9.34675 82.3855 9.1721 82.0457 9.1721C81.6959 9.1721 81.4294 9.34675 81.2454 9.69605C81.0888 9.98496 81.0113 10.337 81.0113 10.7532C81.0113 11.1573 81.0896 11.5039 81.2454 11.7928C81.4344 12.1421 81.6976 12.3167 82.0374 12.3167C82.3705 12.3167 82.6328 12.1393 82.8211 11.7835C82.9818 11.489 83.0634 11.1397 83.0634 10.7356Z"
    fill="white" />
  <path
    d="M88.6608 12.9302H87.7888V10.4219C87.7888 9.64902 87.5256 9.26256 86.9968 9.26256C86.7378 9.26256 86.5287 9.36846 86.3672 9.5812C86.2056 9.79394 86.1248 10.0448 86.1248 10.3318V12.9293H85.2512V9.8023C85.2512 9.4177 85.2412 9.00058 85.2204 8.5491H85.9866L86.0274 9.23376H86.0515C86.154 9.02102 86.3055 8.84544 86.5037 8.70517C86.7411 8.54166 87.0051 8.45898 87.2958 8.45898C87.6614 8.45898 87.9662 8.5909 88.2085 8.85566C88.5108 9.17988 88.6608 9.66388 88.6608 10.3067V12.9302Z"
    fill="white" />
  <path
    d="M94.5346 9.27984H93.5735V11.4072C93.5735 11.9479 93.7442 12.2182 94.0824 12.2182C94.2389 12.2182 94.3689 12.2034 94.4713 12.1727L94.4938 12.9113C94.3214 12.9837 94.0949 13.0199 93.8159 13.0199C93.4711 13.0199 93.2029 12.9029 93.0089 12.6688C92.814 12.4347 92.7174 12.0408 92.7174 11.488V9.27984H92.1436V8.55059H92.7174V7.74795L93.5727 7.45996V8.54966H94.5338V9.27984H94.5346Z"
    fill="white" />
  <path
    d="M99.1554 12.9301H98.2818V10.4405C98.2818 9.65546 98.0186 9.2625 97.4915 9.2625C97.0867 9.2625 96.8102 9.49011 96.6587 9.94531C96.6328 10.041 96.6178 10.158 96.6178 10.2955V12.9292H95.7459V6.5415H96.6178V9.18075H96.6345C96.9093 8.70047 97.3033 8.46079 97.8138 8.46079C98.1752 8.46079 98.4742 8.5927 98.7116 8.85747C99.0072 9.18726 99.1554 9.67776 99.1554 10.3262V12.9301Z"
    fill="white" />
  <path
    d="M103.922 10.5331C103.922 10.7078 103.91 10.8546 103.889 10.9744H101.272C101.283 11.4073 101.408 11.7371 101.651 11.9656C101.872 12.17 102.158 12.2722 102.508 12.2722C102.895 12.2722 103.248 12.2034 103.566 12.065L103.703 12.7413C103.33 12.9215 102.892 13.0117 102.385 13.0117C101.777 13.0117 101.298 12.8119 100.952 12.4125C100.604 12.013 100.431 11.477 100.431 10.8044C100.431 10.1439 100.592 9.59392 100.916 9.15544C101.254 8.68723 101.711 8.45312 102.288 8.45312C102.853 8.45312 103.282 8.68723 103.572 9.15544C103.806 9.52703 103.922 9.98688 103.922 10.5331ZM103.089 10.2814C103.095 9.99246 103.038 9.74349 102.92 9.53354C102.768 9.2632 102.538 9.12757 102.225 9.12757C101.94 9.12757 101.708 9.25949 101.531 9.52425C101.386 9.73513 101.3 9.98688 101.272 10.2814H103.089Z"
    fill="white" />
</svg>