<svg width="70" height="30" viewBox="0 0 70 30" fill="none" xmlns="http://www.w3.org/2000/svg">
  <path
    d="M56.9289 19.0217C59.8894 19.0513 62.2669 21.4717 62.2387 24.4336C62.2366 24.6631 62.2155 24.887 62.1852 25.108C61.8276 27.7481 59.5592 29.7708 56.8269 29.7441C54.0192 29.7187 51.7424 27.5405 51.5354 24.7905C51.5227 24.6399 51.515 24.4871 51.5164 24.3329C51.5438 21.3704 53.9671 18.9943 56.9289 19.0217ZM57.3732 21.0627L57.3584 22.6031C57.5259 22.6489 57.6837 22.7172 57.8308 22.8073L58.9333 21.7259C58.4877 21.3809 57.9575 21.1493 57.3732 21.0627ZM59.5831 22.3884L58.4771 23.4712C58.563 23.6197 58.627 23.7774 58.6679 23.945L60.2083 23.9598C60.1351 23.3747 59.9161 22.8404 59.5831 22.3884ZM60.2062 24.887L58.6531 24.8722C58.6087 25.0362 58.5419 25.1925 58.4546 25.3354L59.5416 26.4415C59.8816 25.9986 60.1189 25.4692 60.2062 24.887ZM58.8713 27.0871L57.7921 25.9874C57.6484 26.069 57.4893 26.131 57.3253 26.1718L57.3105 27.7172C57.8899 27.6432 58.4229 27.4208 58.8713 27.0871ZM53.5531 23.8978L55.0956 23.9126C55.1393 23.7443 55.2083 23.5887 55.2942 23.4416L54.2107 22.3384C53.8678 22.7826 53.6397 23.3135 53.5531 23.8978ZM56.446 21.0535C55.8595 21.1282 55.3252 21.3513 54.8739 21.6851L55.9546 22.7883C56.1024 22.7017 56.2615 22.6376 56.4312 22.5954L56.446 21.0535ZM56.3826 27.7073L56.3974 26.1634C56.2327 26.119 56.0757 26.0557 55.932 25.9684L54.8323 27.0512C55.2759 27.3905 55.8018 27.6242 56.3826 27.7073ZM54.1727 26.3957L55.2836 25.3073C55.1998 25.1622 55.1294 25.006 55.0879 24.8391L53.5475 24.8243C53.6228 25.4065 53.8383 25.9451 54.1727 26.3957Z"
    fill="#828282" />
  <path
    d="M12.0825 19.0217C15.043 19.0513 17.4205 21.4717 17.393 24.4336C17.3902 24.6631 17.3698 24.887 17.3388 25.108C16.9819 27.7481 14.7128 29.7708 11.9805 29.7441C9.1735 29.7187 6.89597 27.5405 6.68829 24.7905C6.67561 24.6399 6.66857 24.4871 6.66998 24.3329C6.69744 21.3704 9.1207 18.9943 12.0825 19.0217ZM12.5268 21.0627L12.512 22.6031C12.6803 22.6489 12.838 22.7172 12.9851 22.8073L14.0869 21.7259C13.642 21.3809 13.1111 21.1493 12.5268 21.0627ZM14.736 22.3884L13.6314 23.4712C13.7166 23.6197 13.78 23.7774 13.8222 23.945L15.3626 23.9598C15.2887 23.3747 15.0697 22.8404 14.736 22.3884ZM15.3598 24.887L13.8074 24.8722C13.7631 25.0362 13.6962 25.1925 13.6082 25.3354L14.6959 26.4415C15.0366 25.9986 15.2718 25.4692 15.3598 24.887ZM14.0257 27.0871L12.9457 25.9874C12.8021 26.069 12.6422 26.131 12.4796 26.1718L12.4648 27.7172C13.0442 27.6432 13.5758 27.4208 14.0257 27.0871ZM8.70673 23.8978L10.2485 23.9126C10.2929 23.7443 10.3612 23.5887 10.4471 23.4416L9.36429 22.3384C9.02073 22.7826 8.79333 23.3135 8.70673 23.8978ZM11.5982 21.0535C11.0124 21.1282 10.4781 21.3513 10.0275 21.6851L11.1082 22.7883C11.2553 22.7017 11.4151 22.6376 11.5841 22.5954L11.5982 21.0535ZM11.5362 27.7073L11.551 26.1634C11.387 26.119 11.2293 26.0557 11.0863 25.9684L9.98666 27.0512C10.4288 27.3905 10.9547 27.6242 11.5362 27.7073ZM9.32698 26.3957L10.4365 25.3073C10.3542 25.1622 10.2823 25.006 10.2415 24.8391L8.7011 24.8243C8.77713 25.4065 8.99186 25.9451 9.32698 26.3957Z"
    fill="#828282" />
  <path
    d="M0.585747 21.4188L1.23064 21.1816C1.23064 21.1816 1.21938 5.87674 4.57336 1.25973C5.14362 0.47474 29.9916 -1.0699 39.027 2.58823C42.7408 4.09133 54.1045 11.7659 54.1045 11.7659C54.1045 11.7659 63.7194 13.2613 66.7256 15.1094C68.0618 16.1583 68.8686 18.3211 68.8686 18.3211L69.6825 19.192C69.8867 19.4117 70 19.6982 70 19.9974V21.4533C70 21.83 69.6937 22.1369 69.3171 22.1369V24.6799C69.4403 24.6799 69.5522 24.7524 69.6036 24.8622C69.6543 24.9735 69.6508 25.1185 69.5572 25.1995C69.2826 25.4346 67.9485 25.6078 66.9523 25.724C66.0314 25.8296 63.0569 26.1253 63.0569 26.1253C63.1364 25.8408 63.204 25.5515 63.2456 25.2516C63.2857 24.9622 63.3061 24.6975 63.3082 24.4447C63.342 20.9007 60.4844 17.9888 56.9396 17.9536C53.3638 17.9536 50.4787 20.8113 50.4471 24.3237C50.4456 24.5095 50.4548 24.694 50.4689 24.8756C50.4984 25.2678 50.5667 25.6486 50.6632 26.0175L18.3279 25.6289C18.3526 25.5029 18.38 25.3797 18.3976 25.2516C18.4385 24.9622 18.4589 24.6975 18.461 24.4447C18.4948 20.9007 15.6378 17.9888 12.0931 17.9536C8.51661 17.9536 5.63222 20.8113 5.60053 24.3237C5.59913 24.5095 5.60828 24.694 5.62236 24.8756C5.63714 25.0734 5.66249 25.2678 5.69488 25.4607L1.54816 25.1093C0.80822 25.0467 0.21965 24.468 0.145729 23.7309L0.00422668 22.3503C-0.0359039 21.9433 0.202057 21.5604 0.585747 21.4188ZM33.5159 11.2858C33.5729 11.6286 33.8707 11.88 34.2164 11.88H44.5149V10.6979C44.5149 9.93194 45.0507 9.27156 45.7991 9.11174L45.7019 7.92898C45.7019 7.92898 41.0483 4.33562 33.1871 4.21664C32.9766 4.21312 32.776 4.30394 32.6387 4.46376C32.5014 4.62357 32.4409 4.83619 32.4768 5.04317L33.5159 11.2858Z"
    fill="#333333" />
</svg>