<svg width="70" height="70" viewBox="0 0 70 70" fill="none" xmlns="http://www.w3.org/2000/svg">
<g clip-path="url(#clip0)">
<path d="M56.9289 39.0217C59.8894 39.0513 62.2669 41.4717 62.2387 44.4336C62.2366 44.6631 62.2155 44.887 62.1852 45.108C61.8276 47.7481 59.5592 49.7708 56.8269 49.7441C54.0192 49.7187 51.7424 47.5405 51.5354 44.7905C51.5227 44.6399 51.515 44.4871 51.5164 44.3329C51.5438 41.3704 53.9671 38.9943 56.9289 39.0217ZM57.3732 41.0627L57.3584 42.6031C57.5259 42.6489 57.6837 42.7172 57.8308 42.8073L58.9333 41.7259C58.4877 41.3809 57.9575 41.1493 57.3732 41.0627ZM59.5831 42.3884L58.4771 43.4712C58.563 43.6197 58.627 43.7774 58.6679 43.945L60.2083 43.9598C60.1351 43.3747 59.9161 42.8404 59.5831 42.3884ZM60.2062 44.887L58.6531 44.8722C58.6087 45.0362 58.5419 45.1925 58.4546 45.3354L59.5416 46.4415C59.8816 45.9986 60.1189 45.4692 60.2062 44.887ZM58.8713 47.0871L57.7921 45.9874C57.6484 46.069 57.4893 46.131 57.3253 46.1718L57.3105 47.7172C57.8899 47.6432 58.4229 47.4208 58.8713 47.0871ZM53.5531 43.8978L55.0956 43.9126C55.1393 43.7443 55.2083 43.5887 55.2942 43.4416L54.2107 42.3384C53.8678 42.7826 53.6397 43.3135 53.5531 43.8978ZM56.446 41.0535C55.8595 41.1282 55.3252 41.3513 54.8739 41.6851L55.9546 42.7883C56.1024 42.7017 56.2615 42.6376 56.4312 42.5954L56.446 41.0535ZM56.3826 47.7073L56.3974 46.1634C56.2327 46.119 56.0757 46.0557 55.932 45.9684L54.8323 47.0512C55.2759 47.3905 55.8018 47.6242 56.3826 47.7073ZM54.1727 46.3957L55.2836 45.3073C55.1998 45.1622 55.1294 45.006 55.0879 44.8391L53.5475 44.8243C53.6228 45.4065 53.8383 45.9451 54.1727 46.3957Z" fill="#828282"/>
<path d="M12.0825 39.0217C15.043 39.0513 17.4205 41.4717 17.393 44.4336C17.3902 44.6631 17.3698 44.887 17.3388 45.108C16.9819 47.7481 14.7128 49.7708 11.9805 49.7441C9.1735 49.7187 6.89597 47.5405 6.68829 44.7905C6.67561 44.6399 6.66857 44.4871 6.66998 44.3329C6.69744 41.3704 9.1207 38.9943 12.0825 39.0217ZM12.5268 41.0627L12.512 42.6031C12.6803 42.6489 12.838 42.7172 12.9851 42.8073L14.0869 41.7259C13.642 41.3809 13.1111 41.1493 12.5268 41.0627ZM14.736 42.3884L13.6314 43.4712C13.7166 43.6197 13.78 43.7774 13.8222 43.945L15.3626 43.9598C15.2887 43.3747 15.0697 42.8404 14.736 42.3884ZM15.3598 44.887L13.8074 44.8722C13.7631 45.0362 13.6962 45.1925 13.6082 45.3354L14.6959 46.4415C15.0366 45.9986 15.2718 45.4692 15.3598 44.887ZM14.0257 47.0871L12.9457 45.9874C12.8021 46.069 12.6422 46.131 12.4796 46.1718L12.4648 47.7172C13.0442 47.6432 13.5758 47.4208 14.0257 47.0871ZM8.70673 43.8978L10.2485 43.9126C10.2929 43.7443 10.3612 43.5887 10.4471 43.4416L9.36429 42.3384C9.02073 42.7826 8.79333 43.3135 8.70673 43.8978ZM11.5982 41.0535C11.0124 41.1282 10.4781 41.3513 10.0275 41.6851L11.1082 42.7883C11.2553 42.7017 11.4151 42.6376 11.5841 42.5954L11.5982 41.0535ZM11.5362 47.7073L11.551 46.1634C11.387 46.119 11.2293 46.0557 11.0863 45.9684L9.98666 47.0512C10.4288 47.3905 10.9547 47.6242 11.5362 47.7073ZM9.32698 46.3957L10.4365 45.3073C10.3542 45.1622 10.2823 45.006 10.2415 44.8391L8.7011 44.8243C8.77713 45.4065 8.99186 45.9451 9.32698 46.3957Z" fill="#828282"/>
<path d="M0.585747 41.4188L1.23064 41.1816C1.23064 41.1816 1.21938 25.8767 4.57336 21.2597C5.14362 20.4747 29.9916 18.9301 39.027 22.5882C42.7408 24.0913 54.1045 31.7659 54.1045 31.7659C54.1045 31.7659 63.7194 33.2613 66.7256 35.1094C68.0618 36.1583 68.8686 38.3211 68.8686 38.3211L69.6825 39.192C69.8867 39.4117 70 39.6982 70 39.9974V41.4533C70 41.83 69.6937 42.1369 69.3171 42.1369V44.6799C69.4403 44.6799 69.5522 44.7524 69.6036 44.8622C69.6543 44.9735 69.6508 45.1185 69.5572 45.1995C69.2826 45.4346 67.9485 45.6078 66.9523 45.724C66.0314 45.8296 63.0569 46.1253 63.0569 46.1253C63.1364 45.8408 63.204 45.5515 63.2456 45.2516C63.2857 44.9622 63.3061 44.6975 63.3082 44.4447C63.342 40.9007 60.4844 37.9888 56.9396 37.9536C53.3638 37.9536 50.4787 40.8113 50.4471 44.3237C50.4456 44.5095 50.4548 44.694 50.4689 44.8756C50.4984 45.2678 50.5667 45.6486 50.6632 46.0175L18.3279 45.6289C18.3526 45.5029 18.38 45.3797 18.3976 45.2516C18.4385 44.9622 18.4589 44.6975 18.461 44.4447C18.4948 40.9007 15.6378 37.9888 12.0931 37.9536C8.51661 37.9536 5.63222 40.8113 5.60053 44.3237C5.59913 44.5095 5.60828 44.694 5.62236 44.8756C5.63714 45.0734 5.66249 45.2678 5.69488 45.4607L1.54816 45.1093C0.80822 45.0467 0.21965 44.468 0.145729 43.7309L0.00422668 42.3503C-0.0359039 41.9433 0.202057 41.5604 0.585747 41.4188ZM33.5159 31.2858C33.5729 31.6286 33.8707 31.88 34.2164 31.88H44.5149V30.6979C44.5149 29.9319 45.0507 29.2716 45.7991 29.1117L45.7019 27.929C45.7019 27.929 41.0483 24.3356 33.1871 24.2166C32.9766 24.2131 32.776 24.3039 32.6387 24.4638C32.5014 24.6236 32.4409 24.8362 32.4768 25.0432L33.5159 31.2858Z" fill="#333333"/>
</g>
<defs>
<clipPath id="clip0">
<rect width="70" height="70" fill="white" transform="matrix(-1 0 0 1 70 0)"/>
</clipPath>
</defs>
</svg>
