<svg width="60" height="60" viewBox="0 0 60 60" fill="none" xmlns="http://www.w3.org/2000/svg">
<g clip-path="url(#clip0)">
<path d="M29.3348 10.3829C32.0965 10.3829 34.3353 8.14409 34.3353 5.38237C34.3353 2.62065 32.0965 0.381836 29.3348 0.381836C26.573 0.381836 24.3342 2.62065 24.3342 5.38237C24.3342 8.14409 26.573 10.3829 29.3348 10.3829Z" fill="#333333"/>
<path d="M51.7492 43.1164C50.7879 43.1164 49.8651 43.2833 49.0065 43.5869L48.5999 42.3788C49.3908 42.1338 50.2296 41.999 51.0986 41.9934C52.1545 41.9867 53.0672 41.1916 53.1327 40.1379C53.2043 38.9859 52.2912 38.0294 51.1547 38.0294C49.8238 38.0294 48.5407 38.2373 47.3353 38.6212L44.6365 30.6017H45.8504C46.3337 31.6395 47.2752 32.4208 48.4156 32.6838C48.8494 32.7839 49.2653 32.4542 49.2653 32.0074V26.0213C49.2653 25.5774 48.853 25.2446 48.4203 25.3438C47.2778 25.6057 46.3344 26.3878 45.8504 27.4271H45.2688C44.9089 27.8898 44.4619 28.2795 43.9539 28.5731C42.6591 29.3216 41.5599 29.1798 40.7936 29.1352C40.9773 29.6811 42.0674 32.9203 42.3014 33.6158C42.0786 33.8237 42.7647 32.7891 33.385 47.5405H33.2958C32.9617 48.6606 32.4799 49.5668 31.428 50.3387C31.2367 50.4791 31.0349 50.6043 30.8256 50.7151H33.4106C34.4774 50.7151 35.4702 50.17 36.043 49.2699L43.5818 37.4205L44.4399 39.9703C40.9174 42.195 38.5668 46.114 38.5436 50.574C38.538 51.6545 39.3751 52.5839 40.455 52.6212C41.5817 52.6602 42.5073 51.7584 42.5073 50.6404C42.5073 47.9119 43.7789 45.4762 45.759 43.8902L46.2171 45.2512C44.4675 46.8353 43.398 49.1572 43.5058 51.721C43.6841 55.9601 47.117 59.4105 51.3552 59.6087C56.0832 59.8299 60.0001 56.0473 60.0001 51.367C60.0001 46.8178 56.2988 43.1164 51.7492 43.1164ZM51.7492 54.333C50.1139 54.333 48.7835 53.0026 48.7835 51.3673C48.7835 49.732 50.1139 48.4016 51.7492 48.4016C53.3845 48.4016 54.7149 49.732 54.7149 51.3673C54.7149 53.0026 53.3845 54.333 51.7492 54.333Z" fill="#828282"/>
<path d="M35.1114 33.8463C35.5176 32.4848 34.8069 31.0401 33.4805 30.531L30.4057 29.3508L30.5891 28.4401C29.6658 28.1272 28.9641 27.3546 28.7405 26.4088L26.9658 18.8759L30.697 25.2663C31.0795 25.9216 31.7646 26.3417 32.522 26.3857L41.5582 26.9109C42.8094 26.9831 43.8789 26.0282 43.9515 24.7805C44.024 23.5315 43.0703 22.46 41.8211 22.3873L33.9974 21.9326L30.8786 16.5912L32.6466 18.2225L32.8582 17.1715C33.2266 15.3425 32.0425 13.5614 30.2136 13.193L24.3082 12.0036C22.4793 11.6354 20.6981 12.8194 20.3297 14.6482L18.4322 24.0706V15.0024C18.4322 14.3709 17.9202 13.8589 17.2887 13.8589H4.24862C3.61712 13.8589 3.10512 14.3709 3.10512 15.0024V31.6421H2.31229C1.03521 31.6421 0 32.6773 0 33.9544C0 35.2314 1.03521 36.2666 2.31229 36.2666H11.8257V39.7905C7.93885 41.2605 5.01878 44.6985 4.28263 48.8894C4.11648 49.8354 4.8452 50.7032 5.8073 50.7032H7.8303C7.8127 50.9227 7.80124 51.1438 7.80124 51.3677C7.80124 55.9172 11.5025 59.6186 16.0522 59.6186C20.6017 59.6186 24.3031 55.9173 24.3031 51.3677C24.3031 51.148 24.2919 50.931 24.275 50.7156H26.2323C24.2111 49.641 23.1684 47.2528 23.8414 44.9962L26.4455 36.2666H28.7152L25.9257 45.618C25.4964 47.0568 26.3149 48.5711 27.7537 49.0004C29.1926 49.4296 30.707 48.611 31.1361 47.1724L35.1114 33.8463ZM16.0521 54.3336C14.4167 54.3336 13.0864 53.0032 13.0864 51.3679C13.0864 51.1395 13.1132 50.9173 13.1623 50.7035H18.9418C18.9909 50.9172 19.0177 51.1394 19.0177 51.3679C19.0177 53.0032 17.6872 54.3336 16.0521 54.3336ZM18.4324 31.6423V29.4012C18.8137 30.274 19.4048 31.0459 20.1555 31.6423H18.4324Z" fill="#333333"/>
</g>
<defs>
<clipPath id="clip0">
<rect width="60" height="60" fill="white"/>
</clipPath>
</defs>
</svg>
