<svg width="20" height="20" viewBox="0 0 20 20" fill="none" xmlns="http://www.w3.org/2000/svg">
<g clip-path="url(#clip0)">
<path d="M19.7793 0.220616C18.2459 -0.29079 16.5838 0.101671 15.4408 1.24472L11.2648 5.42061L2.56406 1.69179L0.906756 3.34901L7.95022 8.73517L4.1432 12.5422L1.65726 11.7135L0 13.3708L4.1432 15.8568L6.62913 20L8.28639 18.3427L7.45776 15.8568L11.2648 12.0498L16.6509 19.0932L18.3082 17.4359L14.5794 8.73521L18.7553 4.55928C19.8984 3.41624 20.2908 1.75413 19.7793 0.220616Z" fill="#333333"/>
<path d="M18.7225 10.3921C18.2649 9.9344 17.5229 9.9344 17.0652 10.3921L16.715 10.7424L17.7093 13.0626L18.7225 12.0494C19.1802 11.5917 19.1802 10.8498 18.7225 10.3921Z" fill="#828282"/>
<path d="M9.60739 1.27784C9.14978 0.820147 8.40778 0.820147 7.95013 1.27784L6.93689 2.29112L9.25712 3.28546L9.60739 2.9351C10.0651 2.47749 10.0651 1.73554 9.60739 1.27784Z" fill="#828282"/>
</g>
<defs>
<clipPath id="clip0">
<rect width="20" height="20" fill="white"/>
</clipPath>
</defs>
</svg>
