<svg width="50" height="50" viewBox="0 0 50 50" fill="none" xmlns="http://www.w3.org/2000/svg">
<path d="M9.9435 20.0128C9.4866 20.1643 9.4866 20.8106 9.9435 20.962L24.8426 25.9008C24.9447 25.9346 25.0551 25.9346 25.1572 25.9008L40.0563 20.962C40.5132 20.8106 40.5132 20.1643 40.0563 20.0128L25.1572 15.0741C25.0551 15.0403 24.9447 15.0403 24.8426 15.0741L9.9435 20.0128Z" fill="#8D090C"/>
<path d="M45.9327 22.9017C45.6876 22.5124 45.2085 22.3405 44.7718 22.4852L28.4476 27.8964C27.8313 28.1007 27.57 28.8289 27.9159 29.3784L31.2956 34.7469C31.5408 35.1363 32.0199 35.3081 32.4566 35.1634L48.7808 29.7522C49.3971 29.5479 49.6584 28.8196 49.3125 28.2702L45.9327 22.9017Z" fill="#828282"/>
<path d="M23.5352 36.0377C23.5352 35.0347 22.2233 34.6561 21.689 35.5049L19.9609 38.2499C19.7158 38.6392 19.2367 38.8111 18.8 38.6663L6.63581 34.6341C5.98859 34.4196 5.32117 34.9015 5.32117 35.5833V43.2404C5.32117 43.6714 5.59737 44.054 6.00652 44.1896L22.2206 49.5642C22.8678 49.7788 23.5352 49.2969 23.5352 48.615V36.0377Z" fill="#828282"/>
<path d="M31.2001 38.6663C30.7634 38.8111 30.2843 38.6392 30.0392 38.2499L28.3111 35.5049C27.7767 34.6561 26.4648 35.0347 26.4648 36.0377V48.615C26.4648 49.2969 27.1323 49.7788 27.7795 49.5642L43.9935 44.1896C44.4027 44.054 44.6789 43.6714 44.6789 43.2404V35.5833C44.6789 34.9015 44.0115 34.4196 43.3643 34.6341L31.2001 38.6663Z" fill="#828282"/>
<path d="M17.5433 35.1634C17.98 35.3081 18.4592 35.1363 18.7043 34.7469L22.084 29.3784C22.4299 28.8289 22.1686 28.1007 21.5523 27.8964L5.22813 22.4852C4.79144 22.3405 4.31233 22.5124 4.06723 22.9017L0.687443 28.2702C0.34154 28.8196 0.602779 29.5479 1.21906 29.7522L17.5433 35.1634Z" fill="#828282"/>
<path d="M23.5352 1C23.5352 0.447715 23.9829 0 24.5352 0H25.4648C26.0171 0 26.4648 0.447715 26.4648 1V8.78262C26.4648 9.3349 26.0171 9.78262 25.4648 9.78262H24.5352C23.9829 9.78262 23.5352 9.3349 23.5352 8.78262V1Z" fill="#8D090C"/>
<path d="M10.2578 5.34256C9.98167 4.86428 10.1455 4.2527 10.6238 3.97656L11.4289 3.51172C11.9072 3.23558 12.5188 3.39944 12.7949 3.87772L16.6862 10.6175C16.9624 11.0957 16.7985 11.7073 16.3202 11.9835L15.5151 12.4483C15.0368 12.7245 14.4253 12.5606 14.1491 12.0823L10.2578 5.34256Z" fill="#828282"/>
<path d="M33.6792 11.9844C33.201 11.7082 33.0371 11.0967 33.3132 10.6184L37.2045 3.87863C37.4807 3.40035 38.0923 3.23649 38.5705 3.51263L39.3756 3.97747C39.8539 4.25362 40.0178 4.86519 39.7416 5.34347L35.8503 12.0832C35.5742 12.5615 34.9626 12.7254 34.4843 12.4492L33.6792 11.9844Z" fill="#828282"/>
</svg>
