<svg width="20" height="20" viewBox="0 0 20 20" fill="none" xmlns="http://www.w3.org/2000/svg">
<g clip-path="url(#clip0)">
<path d="M17.047 6.43652H12.9173V13.9213H19.6834V10.5524L18.8943 7.82516C18.6564 7.00273 17.9031 6.43652 17.047 6.43652Z" fill="#F2F2F2"/>
<path d="M18.6956 10.5184L17.9923 8.08732C17.8711 7.66943 17.4824 7.37695 17.047 7.37695H13.8572V10.5184H18.6956Z" fill="#84DBFF"/>
<path d="M18.6964 10.5174H13.8556V7.37598L18.6964 10.5174Z" fill="#4F4F4F"/>
<path d="M18.6956 10.5184L17.9923 8.08732C17.8711 7.66943 17.4824 7.37695 17.047 7.37695H13.8572L18.6956 10.5184Z" fill="#F2F2F2"/>
<path d="M1.24989 2.67969H11.6673C12.3573 2.67969 12.9172 3.23921 12.9172 3.92958V13.9217H0V3.92958C0 3.23925 0.559523 2.67969 1.24989 2.67969Z" fill="#E0E0E0"/>
<path d="M8.46608 2.68164V5.98425L7.98276 5.50097L7.47616 6.00761L6.96995 5.50097L6.46374 6.00761L5.95668 5.50097L5.44383 6.00761L4.93801 5.50097L4.44891 5.99011V2.68164H8.46608Z" fill="#333333"/>
<path d="M20.0001 13.9207V15.333H0.00177002V13.9207H2.08909C2.57655 13.0457 3.51397 12.4541 4.58888 12.4541C5.65962 12.4541 6.59704 13.0457 7.08867 13.9207H13.8048C14.2922 13.0457 15.2251 12.4541 16.3 12.4541C17.3749 12.4541 18.3082 13.0457 18.7998 13.9207H20.0001Z" fill="#E0E0E0"/>
<path d="M18.2958 15.3242C18.2958 16.4266 17.4022 17.3203 16.2998 17.3203C15.1974 17.3203 14.3045 16.4266 14.3045 15.3242C14.3045 14.2218 15.1977 13.3281 16.2998 13.3281C17.4026 13.3281 18.2958 14.2218 18.2958 15.3242Z" fill="#333333"/>
<path d="M17.1024 15.3241C17.1024 15.767 16.7432 16.1257 16.3008 16.1257C15.8579 16.1257 15.4984 15.767 15.4984 15.3241C15.4984 14.8812 15.8575 14.5225 16.3008 14.5225C16.7432 14.5221 17.1024 14.8812 17.1024 15.3241Z" fill="#F2F2F2"/>
<path d="M6.58323 15.3242C6.58323 16.4266 5.68913 17.3203 4.58715 17.3203C3.48474 17.3203 2.59106 16.4266 2.59106 15.3242C2.59106 14.2218 3.48474 13.3281 4.58715 13.3281C5.68913 13.3281 6.58323 14.2218 6.58323 15.3242Z" fill="#333333"/>
<path d="M5.38865 15.3241C5.38865 15.767 5.02993 16.1257 4.58704 16.1257C4.14414 16.1257 3.78503 15.767 3.78503 15.3241C3.78503 14.8812 4.14418 14.5225 4.58704 14.5225C5.02989 14.5225 5.38865 14.8812 5.38865 15.3241Z" fill="#F2F2F2"/>
</g>
<defs>
<clipPath id="clip0">
<rect width="20" height="20" fill="white"/>
</clipPath>
</defs>
</svg>
