<svg width="32" height="32" viewBox="0 0 32 32" fill="none" xmlns="http://www.w3.org/2000/svg">
<path d="M14.7539 0.175931L0.327237 6.91593C0.229676 6.96067 0.147028 7.0325 0.0891309 7.12288C0.0312339 7.21325 0.000527568 7.31836 0.000668052 7.42569C0.000808536 7.53302 0.0317884 7.63805 0.0899218 7.72827C0.148055 7.8185 0.230892 7.89011 0.328569 7.9346L14.8686 14.6253C15.2979 14.8226 15.7939 14.8226 16.2232 14.6253L30.7632 7.9346C30.861 7.89024 30.9439 7.81873 31.0022 7.72859C31.0604 7.63844 31.0915 7.53345 31.0918 7.42612C31.0921 7.31879 31.0615 7.21364 31.0037 7.12319C30.946 7.03274 30.8634 6.9608 30.7659 6.91593L16.3379 0.175931C16.09 0.0600563 15.8196 0 15.5459 0C15.2722 0 15.0019 0.0600563 14.7539 0.175931Z" fill="#F2F2F2"/>
<path opacity="0.64" d="M30.7659 15.5679L27.7859 14.1759C27.5725 14.0761 27.3399 14.0241 27.1043 14.0234C26.8688 14.0228 26.6359 14.0734 26.4219 14.1719L16.2232 18.8652C16.0108 18.9629 15.7797 19.0135 15.5459 19.0135C15.3121 19.0135 15.081 18.9629 14.8686 18.8652L4.66857 14.1719C4.45475 14.0736 4.22211 14.0231 3.9868 14.0237C3.75148 14.0244 3.51914 14.0763 3.30591 14.1759L0.325904 15.5679C0.228401 15.6127 0.145847 15.6847 0.088068 15.7751C0.0302888 15.8656 -0.000279049 15.9707 1.91962e-06 16.0781C0.000282888 16.1854 0.0314004 16.2904 0.0896524 16.3805C0.147904 16.4707 0.230836 16.5422 0.328572 16.5865L14.8686 23.2759C15.0809 23.3741 15.312 23.4249 15.5459 23.4249C15.7798 23.4249 16.0109 23.3741 16.2232 23.2759L30.7632 16.5865C30.861 16.5422 30.9439 16.4707 31.0022 16.3805C31.0604 16.2904 31.0915 16.1854 31.0918 16.0781C31.0921 15.9707 31.0615 15.8656 31.0037 15.7751C30.946 15.6847 30.8634 15.6127 30.7659 15.5679Z" fill="#BDBDBD"/>
<path d="M30.7659 24.1441L27.7859 22.7521C27.5725 22.6524 27.3399 22.6004 27.1044 22.5997C26.8688 22.599 26.6359 22.6496 26.4219 22.7481L16.2232 27.4401C16.0108 27.5378 15.7797 27.5883 15.5459 27.5883C15.3121 27.5883 15.081 27.5378 14.8686 27.4401L4.66858 22.7468C4.45476 22.6485 4.22212 22.5979 3.9868 22.5986C3.75149 22.5993 3.51915 22.6512 3.30591 22.7507L0.325909 24.1441C0.228782 24.1891 0.146599 24.261 0.0890955 24.3513C0.0315919 24.4416 0.00117852 24.5465 0.00145914 24.6536C0.00173976 24.7607 0.0327036 24.8654 0.0906798 24.9554C0.148656 25.0454 0.231215 25.1169 0.328577 25.1614L14.8686 31.8521C15.2979 32.0494 15.7939 32.0494 16.2232 31.8521L30.7632 25.1614C30.8606 25.1169 30.9432 25.0454 31.0011 24.9554C31.0591 24.8654 31.0901 24.7607 31.0904 24.6536C31.0906 24.5465 31.0602 24.4416 31.0027 24.3513C30.9452 24.261 30.863 24.1891 30.7659 24.1441Z" fill="#E0E0E0"/>
</svg>
