<svg width="50" height="50" viewBox="0 0 50 50" fill="none" xmlns="http://www.w3.org/2000/svg">
  <g clip-path="url(#clip0)">
    <path
      d="M31.2499 33.3331H16.6666C15.7104 33.3331 14.877 32.6831 14.6458 31.756L12.5624 23.4227C12.4062 22.7998 12.5479 22.1415 12.9416 21.6352C13.3354 21.129 13.9416 20.8331 14.5833 20.8331H32.527L33.4395 18.0915C33.802 17.0019 34.9791 16.406 36.0749 16.7748C37.1666 17.1394 37.7562 18.3185 37.3916 19.4102L33.2249 31.9102C32.9416 32.7602 32.1478 33.3331 31.2499 33.3331Z"
      fill="#828282" />
    <path
      d="M28.125 41.667C29.8509 41.667 31.25 40.2679 31.25 38.542C31.25 36.8161 29.8509 35.417 28.125 35.417C26.3991 35.417 25 36.8161 25 38.542C25 40.2679 26.3991 41.667 28.125 41.667Z"
      fill="#828282" />
    <path
      d="M19.7917 41.667C21.5176 41.667 22.9167 40.2679 22.9167 38.542C22.9167 36.8161 21.5176 35.417 19.7917 35.417C18.0658 35.417 16.6667 36.8161 16.6667 38.542C16.6667 40.2679 18.0658 41.667 19.7917 41.667Z"
      fill="#828282" />
    <path
      d="M43.75 2.08301H6.25C2.80417 2.08301 0 4.88717 0 8.33301V41.6663C0 45.1122 2.80417 47.9163 6.25 47.9163H43.75C47.1958 47.9163 50 45.1122 50 41.6663V8.33301C50 4.88717 47.1958 2.08301 43.75 2.08301ZM43.75 43.7497H6.25C5.10208 43.7497 4.16667 42.8163 4.16667 41.6663V12.4997H45.8333V41.6663C45.8333 42.8163 44.8979 43.7497 43.75 43.7497Z"
      fill="white" />
  </g>
  <defs>
    <clipPath id="clip0">
      <rect width="50" height="50" fill="white" />
    </clipPath>
  </defs>
</svg>