<svg width="50" height="50" viewBox="0 0 50 50" fill="none" xmlns="http://www.w3.org/2000/svg">
  <g clip-path="url(#clip0)">
    <path
      d="M42.6172 16.0923H32.2931V34.8043H49.2084V26.382L47.2356 19.5639C46.6409 17.5078 44.7577 16.0923 42.6172 16.0923Z"
      fill="#828282" />
    <path d="M46.7387 26.2959L44.9806 20.2183C44.6775 19.1736 43.7057 18.4424 42.6172 18.4424H34.6429V26.2959H46.7387Z"
      fill="#84DBFF" />
    <path d="M46.7409 26.2925H34.6388V18.439L46.7409 26.2925Z" fill="#E0E0E0" />
    <path d="M46.7387 26.2959L44.9806 20.2183C44.6775 19.1736 43.7057 18.4424 42.6172 18.4424H34.6429L46.7387 26.2959Z"
      fill="#F2F2F2" />
    <path
      d="M3.12474 6.69824H29.1684C30.8932 6.69824 32.2931 8.09705 32.2931 9.82298V34.8032H0V9.82298C0 8.09715 1.39881 6.69824 3.12474 6.69824Z"
      fill="white" />
    <path
      d="M21.1649 6.70361V14.9601L19.9566 13.7519L18.6901 15.0185L17.4246 13.7519L16.1591 15.0185L14.8914 13.7519L13.6093 15.0185L12.3448 13.7519L11.122 14.9748V6.70361H21.1649Z"
      fill="#333333" />
    <path
      d="M50.0008 34.8021V38.3331H0.00500488V34.8021H5.22332C6.44196 32.6148 8.78552 31.1357 11.4728 31.1357C14.1496 31.1357 16.4932 32.6148 17.7223 34.8021H34.5126C35.7312 32.6148 38.0633 31.1357 40.7506 31.1357C43.4379 31.1357 45.771 32.6148 47.0001 34.8021H50.0008Z"
      fill="#828282" />
    <path
      d="M45.7399 38.3115C45.7399 41.0675 43.5057 43.3017 40.7497 43.3017C37.9937 43.3017 35.7615 41.0675 35.7615 38.3115C35.7615 35.5555 37.9947 33.3213 40.7497 33.3213C43.5068 33.3213 45.7399 35.5555 45.7399 38.3115Z"
      fill="#333333" />
    <path
      d="M42.7558 38.3112C42.7558 39.4184 41.8579 40.3152 40.7517 40.3152C39.6445 40.3152 38.7457 39.4184 38.7457 38.3112C38.7457 37.2039 39.6435 36.3071 40.7517 36.3071C41.8579 36.3062 42.7558 37.204 42.7558 38.3112Z"
      fill="white" />
    <path
      d="M16.458 38.3115C16.458 41.0675 14.2228 43.3017 11.4678 43.3017C8.71179 43.3017 6.4776 41.0675 6.4776 38.3115C6.4776 35.5555 8.71179 33.3213 11.4678 33.3213C14.2228 33.3213 16.458 35.5555 16.458 38.3115Z"
      fill="#333333" />
    <path
      d="M13.4718 38.3112C13.4718 39.4184 12.575 40.3152 11.4678 40.3152C10.3605 40.3152 9.46277 39.4184 9.46277 38.3112C9.46277 37.2039 10.3606 36.3071 11.4678 36.3071C12.5749 36.3071 13.4718 37.204 13.4718 38.3112Z"
      fill="white" />
  </g>
  <defs>
    <clipPath id="clip0">
      <rect width="50" height="50" fill="white" />
    </clipPath>
  </defs>
</svg>