<svg width="40" height="40" viewBox="0 0 40 40" fill="none" xmlns="http://www.w3.org/2000/svg">
  <g clip-path="url(#clipgroup)">
    <path
      d="M34.226 21.3535H31.1326C31.4479 22.2168 31.6201 23.1484 31.6201 24.1195V35.8109C31.6201 36.2157 31.5497 36.6043 31.4215 36.9657H36.5356C38.446 36.9657 40.0001 35.4115 40.0001 33.5012V27.1277C40.0002 23.9438 37.4099 21.3535 34.226 21.3535Z"
      fill="#828282" />
    <path
      d="M8.38009 24.1195C8.38009 23.1484 8.55236 22.2168 8.86767 21.3535H5.77423C2.59032 21.3535 0 23.9438 0 27.1277V33.5013C0 35.4116 1.55414 36.9658 3.46454 36.9658H8.57877C8.45056 36.6042 8.38009 36.2157 8.38009 35.8109V24.1195Z"
      fill="#828282" />
    <path
      d="M23.5361 18.3457H16.464C13.2801 18.3457 10.6898 20.936 10.6898 24.1199V35.8114C10.6898 36.4491 11.2069 36.9662 11.8447 36.9662H28.1555C28.7933 36.9662 29.3103 36.4492 29.3103 35.8114V24.1199C29.3103 20.936 26.72 18.3457 23.5361 18.3457Z"
      fill="#333333" />
    <path
      d="M19.9999 3.03516C16.1708 3.03516 13.0557 6.15032 13.0557 9.97947C13.0557 12.5767 14.4892 14.8451 16.6062 16.036C17.6104 16.6009 18.768 16.9237 19.9999 16.9237C21.2318 16.9237 22.3894 16.6009 23.3936 16.036C25.5107 14.8451 26.9441 12.5767 26.9441 9.97947C26.9441 6.1504 23.829 3.03516 19.9999 3.03516Z"
      fill="#333333" />
    <path
      d="M7.80567 9.50781C4.942 9.50781 2.6123 11.8375 2.6123 14.7012C2.6123 17.5649 4.942 19.8946 7.80567 19.8946C8.53208 19.8946 9.2238 19.7441 9.85216 19.4736C10.9386 19.0059 11.8344 18.1779 12.3887 17.1408C12.7777 16.4129 12.999 15.5825 12.999 14.7012C12.999 11.8376 10.6694 9.50781 7.80567 9.50781Z"
      fill="#828282" />
    <path
      d="M32.1936 9.50781C29.3299 9.50781 27.0002 11.8375 27.0002 14.7012C27.0002 15.5826 27.2216 16.413 27.6106 17.1408C28.1649 18.178 29.0607 19.006 30.1471 19.4736C30.7755 19.7441 31.4672 19.8946 32.1936 19.8946C35.0573 19.8946 37.387 17.5649 37.387 14.7012C37.387 11.8375 35.0573 9.50781 32.1936 9.50781Z"
      fill="#828282" />
  </g>
  <defs>
    <clipPath id="clipgroup">
      <rect width="40" height="40" fill="white" />
    </clipPath>
  </defs>
</svg>