<svg width="40" height="40" viewBox="0 0 40 40" fill="none" xmlns="http://www.w3.org/2000/svg">
  <g clip-path="url(#clipmoneybag)">
    <path
      d="M22.7212 26.5706C22.5718 26.407 22.3828 26.2847 22.1875 26.1827C21.7623 25.961 21.2972 25.8265 20.8354 25.7051V29.2832C21.5849 29.1985 22.4454 28.9265 22.8389 28.2268C23.0268 27.8926 23.0642 27.4819 22.9876 27.1098C22.9461 26.9082 22.8604 26.7232 22.7212 26.5706Z"
      fill="#333333" />
    <path
      d="M22.8348 28.2334C22.8363 28.2309 22.8372 28.2293 22.8388 28.2266C22.8375 28.2288 22.8362 28.2311 22.8348 28.2334Z"
      fill="#333333" />
    <path
      d="M17.3191 20.852C17.1902 21.0402 17.1094 21.2539 17.0871 21.4812C17.0648 21.7088 17.0773 21.9621 17.1638 22.1764C17.2461 22.3807 17.4187 22.5315 17.5968 22.6529C17.7966 22.7888 18.0163 22.895 18.2402 22.9849C18.4279 23.0605 18.6392 23.1328 18.8668 23.2026V19.9648C18.2917 20.0876 17.6632 20.3496 17.3191 20.852Z"
      fill="#333333" />
    <path
      d="M22.8538 28.2012C22.8491 28.2095 22.844 28.2183 22.839 28.2275C22.8448 28.2168 22.8494 28.2089 22.8538 28.2012Z"
      fill="#333333" />
    <path d="M22.8722 28.1678C22.8734 28.1655 22.8736 28.1653 22.8722 28.1678V28.1678Z" fill="#333333" />
    <path
      d="M22.0954 8.70336C25.1383 6.14719 27.1715 0.388519 25.9202 0.136648C24.2577 -0.198144 20.6473 1.26988 18.9023 1.52853C16.4273 1.82736 13.7316 -1.15537 12.2185 0.507207C10.9882 1.85899 13.1005 6.77499 16.4052 8.91664C6.54577 13.7624 -7.31239 38.0887 16.8639 39.8537C50.3159 42.2961 33.5653 13.4255 22.0954 8.70336ZM24.9683 27.8882C24.8654 28.8366 24.3628 29.6942 23.6115 30.2764C22.8182 30.8912 21.8233 31.1772 20.8347 31.2573V32.3051C20.8347 32.5855 20.7123 32.8567 20.5024 33.0423C20.2139 33.2976 19.79 33.3605 19.4398 33.1992C19.0941 33.0401 18.867 32.6856 18.867 32.3051V31.1599C18.6975 31.1277 18.5292 31.0894 18.3629 31.0437C17.439 30.7899 16.582 30.2951 15.956 29.563C15.6442 29.1981 15.3899 28.784 15.2141 28.3371C15.1682 28.2202 15.1273 28.1013 15.0914 27.981C15.0589 27.8721 15.0254 27.7614 15.0138 27.6479C14.9944 27.4575 15.0321 27.2632 15.1209 27.0936C15.3033 26.7447 15.6877 26.534 16.0801 26.569C16.4664 26.6032 16.805 26.8713 16.9266 27.2395C16.964 27.3529 16.9895 27.4692 17.0315 27.5813C17.0732 27.6928 17.1236 27.8011 17.1828 27.9043C17.2997 28.1074 17.4461 28.2947 17.6148 28.4572C17.9625 28.7922 18.4053 29.0099 18.867 29.1394V25.2464C17.9643 25.0127 17.0325 24.7108 16.287 24.1312C15.9248 23.8494 15.6173 23.4993 15.416 23.0849C15.2036 22.6475 15.1156 22.1602 15.112 21.6762C15.1083 21.1848 15.2017 20.6977 15.4067 20.25C15.5987 19.8308 15.8751 19.4544 16.2141 19.1424C16.9388 18.4753 17.9015 18.1032 18.8671 17.9666V17.8809V16.8788C18.8671 16.5985 18.9896 16.3273 19.1994 16.1416C19.488 15.8865 19.9118 15.8234 20.262 15.9847C20.6076 16.1439 20.8348 16.4984 20.8348 16.8788V17.8809V17.9607C20.9635 17.9768 21.0918 17.9962 21.2194 18.0194C22.1676 18.191 23.095 18.5825 23.7884 19.2661C24.1169 19.5899 24.3858 19.9757 24.5749 20.3964C24.6277 20.5138 24.6739 20.6339 24.7139 20.7564C24.7511 20.8705 24.7886 20.9881 24.8064 21.1073C24.8348 21.2975 24.8058 21.494 24.7244 21.668C24.5576 22.0246 24.1836 22.2516 23.7901 22.2347C23.4034 22.2179 23.0531 21.9661 22.9146 21.6047C22.8734 21.4972 22.8528 21.3834 22.8107 21.2762C22.7683 21.1677 22.7133 21.0641 22.65 20.9663C22.5268 20.7762 22.3673 20.6132 22.1852 20.4789C21.7908 20.1877 21.3125 20.0359 20.8345 19.9511V23.6767C21.4026 23.8127 21.9711 23.961 22.5153 24.1756C23.3378 24.5 24.1172 24.9973 24.5662 25.7815C24.4965 25.6594 24.4288 25.5403 24.5685 25.7856C24.7058 26.0265 24.6403 25.9117 24.5714 25.791C24.9286 26.4204 25.0459 27.1731 24.9683 27.8882Z"
      fill="#828282" />
    <path
      d="M22.8232 28.252C22.8174 28.2622 22.8124 28.2712 22.8085 28.2781C22.8119 28.2722 22.817 28.2632 22.8232 28.252Z"
      fill="#333333" />
    <rect x="14" y="15" width="13" height="21" fill="#828282" />
    <path
      d="M24.3956 22.5369H23.5156V18.8182H21.6811V22.5369H19.3693L16.799 18.8182H15.1484V22.5369H14.2536V23.5312H15.1484V24.6847H14.2536V25.679H15.1484V29H16.9929V25.679H19.5781L21.875 29H23.5156V25.679H24.3956V24.6847H23.5156V23.5312H24.3956V22.5369ZM18.0916 23.5312L18.892 24.6847H16.9929V23.5312H18.0916ZM21.6811 23.5312V24.6847H20.8509L20.0554 23.5312H21.6811ZM16.9929 22.5369V22.0646H17.0774L17.4055 22.5369H16.9929ZM21.5369 25.679H21.6811V25.7585H21.5916L21.5369 25.679Z"
      fill="#333333" />
  </g>
  <defs>
    <clipPath id="clipmoneybag">
      <rect width="40" height="40" fill="white" />
    </clipPath>
  </defs>
</svg>