<svg width="40" height="40" viewBox="0 0 40 40" fill="none" xmlns="http://www.w3.org/2000/svg">
  <g clip-path="url(#clipwallet)">
    <path
      d="M29.2308 14.2302H40V9.23016C40 6.04898 37.412 3.46094 34.2308 3.46094H5.76922C2.58805 3.46094 0 6.04898 0 9.23016V30.7686C0 33.9498 2.58805 36.5378 5.76922 36.5378H34.2308C37.412 36.5378 40 33.9498 40 30.7686V25.7686H29.2308C26.0496 25.7686 23.4616 23.1805 23.4616 19.9994C23.4616 16.8182 26.0496 14.2302 29.2308 14.2302Z"
      fill="#333333" />
    <path
      d="M29.2311 16.5391C27.3224 16.5391 25.7695 18.0919 25.7695 20.0006C25.7695 21.9094 27.3223 23.4622 29.2311 23.4622H40.0003V16.5391H29.2311V16.5391ZM30.7695 21.1544H29.2311C28.5938 21.1544 28.0773 20.6378 28.0773 20.0006C28.0773 19.3634 28.5939 18.8468 29.2311 18.8468H30.7695C31.4068 18.8468 31.9234 19.3634 31.9234 20.0006C31.9234 20.6378 31.4068 21.1544 30.7695 21.1544Z"
      fill="#828282" />
  </g>
  <defs>
    <clipPath id="clipwallet">
      <rect width="40" height="40" fill="white" />
    </clipPath>
  </defs>
</svg>